<?xml version="1.0" encoding="UTF-8"?>
<svg version="1.1" xmlns="http://www.w3.org/2000/svg" width="290" height="299">
<path d="M0 0 C1.2065625 0.0309375 1.2065625 0.0309375 2.4375 0.0625 C3.5332398 3.94739564 3.47031347 6.44070266 2.0625 10.1328125 C0.29344358 15.19909772 -0.55751456 20.19047101 -1.25 25.5 C-1.37737549 26.44633301 -1.50475098 27.39266602 -1.63598633 28.36767578 C-2.74903035 37.2884511 -2.8616031 46.08940698 -2.5625 55.0625 C0.75206462 48.09686673 3.44290429 41.05808301 4.953125 33.47265625 C5.53599656 30.5724002 6.46408291 27.85296233 7.4375 25.0625 C9.10361905 25.019779 10.77132885 25.02186168 12.4375 25.0625 C12.7675 25.3925 13.0975 25.7225 13.4375 26.0625 C13.22949958 39.8225278 12.30234252 52.92545003 6.16796875 65.40625 C1.11665671 75.83098674 -4.23295681 87.26324157 -2.5625 99.0625 C-0.35061334 99.27881554 -0.35061334 99.27881554 1.5625 97.25 C5.70980047 92.96570162 9.00829878 87.92124416 12.4375 83.0625 C14.875 83.4375 14.875 83.4375 17.4375 84.0625 C19.04635215 87.2802043 17.57493822 89.86001083 16.5390625 93.17578125 C14.67075029 98.07181927 12.08687921 102.55255351 9.4375 107.0625 C12.9025 106.0725 12.9025 106.0725 16.4375 105.0625 C16.4375 104.4025 16.4375 103.7425 16.4375 103.0625 C16.994375 102.54558594 17.55125 102.02867187 18.125 101.49609375 C21.34468085 98.10781475 23.25877311 94.23487117 25.4375 90.125 C29.51249557 82.47512195 32.76942896 76.65149765 40.5 72.1875 C41.54285156 71.57132812 42.58570313 70.95515625 43.66015625 70.3203125 C46.4375 69.0625 46.4375 69.0625 49.4375 70.0625 C48.86189547 73.94783058 46.89979815 76.09296843 44.4375 79.0625 C45.56929687 78.485 46.70109375 77.9075 47.8671875 77.3125 C49.34885207 76.56229009 50.83062873 75.81230153 52.3125 75.0625 C53.05886719 74.6809375 53.80523437 74.299375 54.57421875 73.90625 C55.28964844 73.5453125 56.00507813 73.184375 56.7421875 72.8125 C57.40202637 72.47734375 58.06186523 72.1421875 58.74169922 71.796875 C60.4375 71.0625 60.4375 71.0625 62.4375 71.0625 C62.4375 70.4025 62.4375 69.7425 62.4375 69.0625 C65.4075 68.5675 65.4075 68.5675 68.4375 68.0625 C68.77064203 72.19780644 68.11794053 74.12873464 65.5625 77.375 C65.02882812 78.07238281 64.49515625 78.76976562 63.9453125 79.48828125 C63.44773438 80.00777344 62.95015625 80.52726562 62.4375 81.0625 C61.7775 81.0625 61.1175 81.0625 60.4375 81.0625 C60.4375 81.7225 60.4375 82.3825 60.4375 83.0625 C59.591875 83.45179688 58.74625 83.84109375 57.875 84.2421875 C49.59920508 88.32365909 44.79132739 92.39962232 39.4375 100.0625 C37.99381995 101.94880566 36.53574848 103.82419647 35.0625 105.6875 C34.41539062 106.52539062 33.76828125 107.36328125 33.1015625 108.2265625 C32.55242187 108.83242187 32.00328125 109.43828125 31.4375 110.0625 C30.7775 110.0625 30.1175 110.0625 29.4375 110.0625 C29.1075 111.0525 28.7775 112.0425 28.4375 113.0625 C24.30504236 116.6187544 19.57482005 119.47370392 14.80078125 122.0859375 C14.18162842 122.4260083 13.56247559 122.7660791 12.92456055 123.11645508 C11.13780445 124.08421297 9.3386487 125.0289708 7.5390625 125.97265625 C3.84564277 128.46129549 2.3014873 129.99520733 0.4375 134.0625 C-0.08125646 138.11806123 -0.02939735 142.10532288 0.0625 146.1875 C0.06378906 147.25226563 0.06507813 148.31703125 0.06640625 149.4140625 C0.17289791 159.16396523 0.69335124 168.94468836 5.5 177.625 C7.04427361 180.46812476 8.41353062 182.99059185 9.4375 186.0625 C10.75153276 186.76644612 12.0895257 187.42595658 13.4375 188.0625 C14.6440625 189.0525 14.6440625 189.0525 15.875 190.0625 C19.8693338 193.18002882 23.72482818 194.24272595 28.6875 194.9375 C33.60158237 195.70006386 38.42762436 196.69874877 43.26171875 197.85546875 C43.99712387 198.03014175 44.73252899 198.20481476 45.49021912 198.38478088 C52.94266728 200.16521121 60.37336999 202.02911014 67.79467773 203.93481445 C70.0020292 204.50052005 72.21093129 205.05987469 74.41992188 205.61914062 C84.20095228 208.11584636 93.83273986 210.95729932 103.4375 214.0625 C103.4375 215.0525 103.4375 216.0425 103.4375 217.0625 C98.39149441 217.97583349 94.19176666 217.98134015 89.125 217.25 C87.70197664 217.05486527 86.27879295 216.8608969 84.85546875 216.66796875 C83.75984619 216.51593994 83.75984619 216.51593994 82.64208984 216.36083984 C61.19625282 213.45864573 39.60041098 212.0472349 18 210.9375 C17.15677185 210.89302734 16.3135437 210.84855469 15.44476318 210.80273438 C-1.97344602 209.89381816 -19.17514054 209.95717315 -36.59301758 210.86206055 C-39.25776963 211.00040337 -41.92277427 211.13255255 -44.58789062 211.26367188 C-57.10279094 211.88797547 -69.61464939 212.5175296 -82.0625 214 C-89.98527398 214.91983345 -97.91793873 215.66863933 -105.86328125 216.36499023 C-107.17039062 216.48015991 -107.17039062 216.48015991 -108.50390625 216.59765625 C-109.76678467 216.70811279 -109.76678467 216.70811279 -111.05517578 216.82080078 C-113.57374428 217.06358392 -116.07919062 217.37032599 -118.58984375 217.68359375 C-122.5625 218.0625 -122.5625 218.0625 -124.5625 217.0625 C-123.5625 214.0625 -123.5625 214.0625 -120.5078125 212.515625 C-116.56866082 210.97673774 -112.5332745 209.84958119 -108.4375 208.8125 C-107.6441626 208.60778076 -106.8508252 208.40306152 -106.03344727 208.19213867 C-98.20470434 206.19029183 -90.35246917 204.28121894 -82.5 202.375 C-80.66381104 201.92882324 -80.66381104 201.92882324 -78.79052734 201.47363281 C-72.81622307 200.03614488 -66.84393441 198.6808909 -60.81225586 197.50756836 C-57.31284695 196.8152816 -53.84277213 196.02252573 -50.375 195.1875 C-49.71564453 195.03925781 -49.05628906 194.89101563 -48.37695312 194.73828125 C-38.38517247 192.31662801 -31.9762992 186.53346816 -26.23828125 178.12109375 C-20.64624943 168.16353522 -21.18955318 155.73872063 -21.19189453 144.64306641 C-21.18747962 142.30169039 -21.15090614 139.96214358 -21.11328125 137.62109375 C-21.05586057 129.94273511 -21.03105365 123.59113937 -25.5625 117.0625 C-28.61702909 114.36732727 -31.40638001 113.88489566 -35.3125 113.25 C-44.64865983 111.54368847 -51.01717646 105.46074037 -56.5625 98.0625 C-57.57293514 96.48580558 -58.57303217 94.90243643 -59.5625 93.3125 C-64.14238444 86.31079184 -71.04496633 84.35229259 -78.59765625 81.50390625 C-85.05772402 78.36324089 -88.38711546 74.56487965 -90.75 67.875 C-91.12161255 66.88741699 -91.12161255 66.88741699 -91.50073242 65.87988281 C-93.42831209 60.67789302 -95.07684331 55.40658883 -96.5625 50.0625 C-96.8925 49.0725 -97.2225 48.0825 -97.5625 47.0625 C-96.9025 46.0725 -96.2425 45.0825 -95.5625 44.0625 C-93.8125 44.12109375 -93.8125 44.12109375 -91.5625 45.0625 C-90.04440213 47.41377268 -88.79039155 49.62991484 -87.5625 52.125 C-87.21219727 52.8065918 -86.86189453 53.48818359 -86.50097656 54.19042969 C-84.70484197 57.70067595 -82.99783963 61.24787293 -81.3125 64.8125 C-79.59822318 67.99615696 -78.78005722 69.49968649 -75.5625 71.0625 C-72.56123533 71.63966628 -69.63091875 72.00781715 -66.578125 72.1640625 C-61.20524087 72.55974001 -57.29681381 74.05244572 -53.5625 78.0625 C-51.58785189 80.96211486 -49.69582445 83.86508284 -47.93383789 86.8972168 C-45.030767 91.78768746 -41.7772033 95.96273308 -36.1875 97.875 C-35.65125 97.936875 -35.115 97.99875 -34.5625 98.0625 C-34.93503906 97.09828125 -35.30757813 96.1340625 -35.69140625 95.140625 C-36.16984166 93.86479725 -36.64767479 92.58874353 -37.125 91.3125 C-37.4952832 90.36117187 -37.4952832 90.36117187 -37.87304688 89.390625 C-39.14447079 85.95240821 -40.02936355 83.54081118 -38.5625 80.0625 C-35.29824063 80.36852432 -33.86656155 80.7618937 -31.5 83.1015625 C-30.860625 83.95492187 -30.22125 84.80828125 -29.5625 85.6875 C-28.87929687 86.58597656 -28.19609375 87.48445313 -27.4921875 88.41015625 C-25.87243563 90.63649535 -24.27040216 92.87240847 -22.6875 95.125 C-20.88452946 98.09422111 -20.88452946 98.09422111 -18.5625 99.0625 C-17.98207273 89.59181351 -19.27700727 82.28980886 -22.75 73.5 C-23.13736328 72.46681641 -23.52472656 71.43363281 -23.92382812 70.36914062 C-25.103053 67.25247852 -26.32329612 64.15576877 -27.5625 61.0625 C-27.9944165 59.97880127 -28.42633301 58.89510254 -28.87133789 57.77856445 C-33.45278706 46.50426049 -38.9354932 39.98798463 -49.0859375 33.30078125 C-52.07076533 30.60313717 -52.34816591 29.00511913 -52.5625 25.0625 C-47.205165 24.26727059 -43.84197505 27.00162709 -39.5625 29.8125 C-38.86382812 30.2559375 -38.16515625 30.699375 -37.4453125 31.15625 C-28.4409312 36.93264555 -22.47818224 42.46001914 -19.5625 53.0625 C-18.9025 53.0625 -18.2425 53.0625 -17.5625 53.0625 C-17.64628906 52.44246094 -17.73007813 51.82242188 -17.81640625 51.18359375 C-19.0791979 40.20210177 -19.94184813 29.20191845 -13.390625 19.8203125 C-10.99442343 16.2055298 -9.14641141 12.39439333 -7.25 8.5 C-3.13922798 0.07656654 -3.13922798 0.07656654 0 0 Z " fill="#253B3B" transform="translate(155.5625,70.9375)"/>
<path d="M0 0 C2 2 2 2 2.22705078 3.87939453 C2.21657715 4.62302246 2.20610352 5.36665039 2.1953125 6.1328125 C2.18886719 6.93847656 2.18242187 7.74414062 2.17578125 8.57421875 C2.15902344 9.41597656 2.14226562 10.25773437 2.125 11.125 C2.11597656 11.97449219 2.10695312 12.82398437 2.09765625 13.69921875 C2.07405647 15.79959884 2.03818483 17.89983444 2 20 C3.093125 19.979375 4.18625 19.95875 5.3125 19.9375 C9 20 9 20 12 21 C12.495 22.485 12.495 22.485 13 24 C11.7421875 26.375 11.7421875 26.375 9.875 29 C9.27429688 29.86625 8.67359375 30.7325 8.0546875 31.625 C4.99305972 35.16391577 2.42448041 36.86303073 -2.25 37.3125 C-6.02232193 38.00409235 -7.35826348 38.76166565 -10.375 40.9375 C-14.66373261 43.99248761 -18.71267854 45.64963532 -24 46 C-24.99 45.67 -25.98 45.34 -27 45 C-26.67 42.36 -26.34 39.72 -26 37 C-27.98 37.495 -27.98 37.495 -30 38 C-32.44009252 34.33986123 -32.38270586 31.49207733 -32.375 27.25 C-32.37628906 26.53005859 -32.37757813 25.81011719 -32.37890625 25.06835938 C-32.26825063 19.54060829 -31.42164118 16.27705148 -28 12 C-27.34 12 -26.68 12 -26 12 C-25.80921875 11.41476563 -25.6184375 10.82953125 -25.421875 10.2265625 C-23.39831319 7.05779813 -20.55213955 5.91690814 -17.25 4.375 C-16.6415625 4.0759375 -16.033125 3.776875 -15.40625 3.46875 C-4.35668537 -1.86715087 -4.35668537 -1.86715087 0 0 Z M-22 29 C-21 31 -21 31 -21 31 Z " fill="#5A9E45" transform="translate(221,61)"/>
<path d="M0 0 C9.9542387 0.0440453 18.75613355 3.60897608 26.0625 10.4375 C32.26868162 17.44594412 32.32766545 23.67463018 32.30078125 32.671875 C32 36 32 36 30 39 C26.31353859 37.54144353 24.83856029 35.69770955 22.75 32.375 C22.22921875 31.55773437 21.7084375 30.74046875 21.171875 29.8984375 C20.78515625 29.27195312 20.3984375 28.64546875 20 28 C20.62816498 31.94949704 21.8645529 35.19892028 23.5625 38.8125 C24.01753906 39.78832031 24.47257812 40.76414063 24.94140625 41.76953125 C25.29074219 42.50558594 25.64007813 43.24164063 26 44 C25 45 25 45 23.21484375 45.0546875 C17.81046536 44.62826999 14.26202975 43.3706079 9.82421875 40.25390625 C7.38485506 38.57717018 5.01742942 37.2374002 2.125 36.5625 C-4.03866521 34.93094156 -7.1746035 31.99071996 -10.8984375 27.03515625 C-12 25 -12 25 -12 21 C-8.32238669 19.82316374 -4.83330292 19.96421654 -1 20 C-1.01160156 18.72382812 -1.02320312 17.44765625 -1.03515625 16.1328125 C-1.04453417 14.46354313 -1.05363437 12.79427217 -1.0625 11.125 C-1.07087891 10.28324219 -1.07925781 9.44148438 -1.08789062 8.57421875 C-1.09111328 7.76855469 -1.09433594 6.96289062 -1.09765625 6.1328125 C-1.10289307 5.38918457 -1.10812988 4.64555664 -1.11352539 3.87939453 C-1 2 -1 2 0 0 Z " fill="#569A41" transform="translate(69,61)"/>
<path d="M0 0 C6.16261326 1.49931199 10.25000502 7.22956825 13.68359375 12.21875 C17.34433006 18.81007576 17.39113715 25.23192883 15.375 32.41015625 C13.84758687 36.49316334 12.46378573 39.58941593 9.18359375 42.53125 C6.56171881 41.48250002 5.38988014 40.88193687 3.93359375 38.40625 C3.68609375 37.7875 3.43859375 37.16875 3.18359375 36.53125 C1.53359375 37.19125 -0.11640625 37.85125 -1.81640625 38.53125 C-8.30690151 32.22104628 -13.84868231 26.56269816 -14.31640625 17.15625 C-14.14649086 10.59215035 -11.52761718 6.69924103 -7.37890625 1.8515625 C-5.11187885 -0.06407565 -2.8905569 -0.12729058 0 0 Z " fill="#53973F" transform="translate(121.81640625,61.46875)"/>
<path d="M0 0 C6.39761096 2.87239676 10.50471919 9.10955269 13.34375 15.375 C15.5412034 21.48965293 15.62951311 27.35820004 13.0625 33.375 C10.42322914 37.75572523 7.95704185 41.4747661 3.0625 43.375 C2.0725 43.375 1.0825 43.375 0.0625 43.375 C-0.2675 39.745 -0.5975 36.115 -0.9375 32.375 C-1.9275 35.345 -2.9175 38.315 -3.9375 41.375 C-8.57102021 40.21661995 -10.43598633 38.66225201 -13.02734375 34.71484375 C-15.46422252 28.45007815 -14.92480359 19.6970859 -13.02734375 13.3125 C-10.36896002 7.70510539 -6.62187295 0.84534548 0 0 Z " fill="#51943D" transform="translate(144.9375,21.625)"/>
<path d="M0 0 C5.48865668 4.33315001 9.19914975 9.22656869 11.375 15.875 C11.5625 19.3125 11.5625 19.3125 11.375 21.875 C7.375 21.875 7.375 21.875 4.375 19.875 C5.035 21.525 5.695 23.175 6.375 24.875 C2.63314486 27.36957009 -1.28739778 27.41195656 -5.625 26.875 C-13.17776641 24.06122428 -18.69500193 17.40317883 -23 10.75 C-23.625 8.875 -23.625 8.875 -22.625 4.875 C-19.655 4.875 -16.685 4.875 -13.625 4.875 C-13.955 3.225 -14.285 1.575 -14.625 -0.125 C-10.06071059 -3.35803834 -4.79651634 -2.05564986 0 0 Z " fill="#579642" transform="translate(230.625,158.125)"/>
<path d="M0 0 C1.33804688 0.30550781 1.33804688 0.30550781 2.703125 0.6171875 C3.37859375 0.78476563 4.0540625 0.95234375 4.75 1.125 C4.42 2.775 4.09 4.425 3.75 6.125 C4.86375 6.08375 5.9775 6.0425 7.125 6 C10.75 6.125 10.75 6.125 12.75 8.125 C13.21034234 11.29386818 12.92408976 12.81377807 11.3515625 15.625 C6.68252255 21.53050507 2.2169126 26.18469279 -5.25 28.125 C-9.01826574 28.21096804 -12.55268961 27.83493983 -16.25 27.125 C-15.92 25.475 -15.59 23.825 -15.25 22.125 C-16.71225016 22.03254997 -16.71225016 22.03254997 -19.25 24.125 C-19.91 23.795 -20.57 23.465 -21.25 23.125 C-21.00905917 15.53536373 -19.10687153 10.96732372 -14.25 5.125 C-9.58632417 0.79444387 -6.35789723 -1.50581776 0 0 Z " fill="#559742" transform="translate(69.25,156.875)"/>
<path d="M0 0 C3.65909186 7.7755702 4.54819109 16.08221654 1.9375 24.375 C-1.72109502 29.33180616 -5.76311473 34.52284296 -12 36 C-12.825 36.20625 -13.65 36.4125 -14.5 36.625 C-17.52543445 35.86864139 -18.02870861 35.11728318 -19.8125 32.625 C-22.51581065 27.73493487 -23.13402104 23.47144459 -22 18 C-18.580582 9.0988691 -10.01452902 0 0 0 Z " fill="#569A42" transform="translate(199,30)"/>
<path d="M0 0 C1.42236837 5.30155483 0.61057785 8.21394062 -2 13 C-4.71419466 16.46813762 -6.10582158 17.80490653 -10.4375 18.75 C-11.613125 18.8325 -12.78875 18.915 -14 19 C-16.00097458 19.3274322 -18.00133314 19.65876419 -20 20 C-20.66 18.68 -21.32 17.36 -22 16 C-22.556875 16.9075 -23.11375 17.815 -23.6875 18.75 C-25.95224249 21.93288134 -27.69000303 23.95095426 -31 26 C-34.125 26.125 -34.125 26.125 -37 26 C-37.99 26.66 -38.98 27.32 -40 28 C-42 26 -42 26 -42.1171875 23.828125 C-41.46158601 16.84914137 -39.91153763 12.68167939 -34.625 7.8125 C-30.13966651 4.71548402 -26.57039774 2.50849432 -21 3 C-20.67 4.65 -20.34 6.3 -20 8 C-19.5875 7.60167969 -19.175 7.20335938 -18.75 6.79296875 C-13.44022464 1.92172395 -7.46234869 -2.56518236 0 0 Z M-21 11 C-20 14 -20 14 -20 14 Z " fill="#5A9E44" transform="translate(231,114)"/>
<path d="M0 0 C-2.10289587 8.24335182 -8.52966362 13.02943612 -15.41015625 17.6015625 C-20.26578276 20.11929476 -23.71536997 20.243776 -28.95703125 18.7734375 C-31.09739395 17.9631281 -33.05250088 17.21026204 -35 16 C-35.75 12.875 -35.75 12.875 -36 10 C-35.34 10 -34.68 10 -34 10 C-34.268125 8.948125 -34.53625 7.89625 -34.8125 6.8125 C-35 3 -35 3 -32.9375 0.25 C-22.35114207 -7.85869969 -10.8995513 -7.26636753 0 0 Z " fill="#5B9E45" transform="translate(261,132)"/>
<path d="M0 0 C3.7171091 2.23026546 5.5770405 4.40050977 8.125 7.875 C7.465 9.195 6.805 10.515 6.125 11.875 C6.785 12.49375 7.445 13.1125 8.125 13.75 C10.125 15.875 10.125 15.875 10.125 17.875 C6.41885344 20.8270423 1.94841086 23.875 -2.875 23.875 C-11.71925436 22.33609974 -18.15658593 16.73524413 -24.23046875 10.4296875 C-25.875 7.875 -25.875 7.875 -25.8984375 5.20703125 C-24.875 2.875 -24.875 2.875 -22.9765625 1.51171875 C-15.45205987 -1.37227831 -7.80059776 -2.82581307 0 0 Z " fill="#56963F" transform="translate(55.875,128.125)"/>
<path d="M0 0 C7.49871138 1.26294086 13.13220287 4.50559852 18 10.375 C20.76770032 14.29107015 22.2590339 17.07835595 22 22 C21.0400604 25.53911797 19.97885905 28.89800473 18 32 C14.5387122 33.50986217 11.55173239 32.7874454 7.9609375 31.79296875 C3.16447014 29.85336143 0.17718583 25.51427796 -2 21 C-2.4023486 18.1350317 -2.37447617 15.3255897 -2.3125 12.4375 C-2.31572266 11.68275391 -2.31894531 10.92800781 -2.32226562 10.15039062 C-2.28500802 6.3060829 -2.16687158 3.25462384 0 0 Z " fill="#559C3F" transform="translate(92,30)"/>
<path d="M0 0 C1.6877906 1.6877906 1.21187677 3.75286785 1.25 6.0625 C1.17148337 12.78875828 0.04667223 17.56611952 -4.3125 22.75 C-11.65914221 28.9006772 -11.65914221 28.9006772 -16.375 29.25 C-17.24125 29.1675 -18.1075 29.085 -19 29 C-19.625 26.1875 -19.625 26.1875 -20 23 C-19.34 22.01 -18.68 21.02 -18 20 C-19.32 20.33 -20.64 20.66 -22 21 C-23.1015625 19.3125 -23.1015625 19.3125 -24 17 C-23.4609375 14.5625 -23.4609375 14.5625 -22.375 12 C-22.03210938 11.154375 -21.68921875 10.30875 -21.3359375 9.4375 C-18.71151917 4.64908761 -15.64437256 2.51302704 -10.5625 0.6875 C-9.63566406 0.34074219 -8.70882812 -0.00601563 -7.75390625 -0.36328125 C-4.74622121 -1.0586751 -2.93409228 -0.88488497 0 0 Z " fill="#599347" transform="translate(253,88)"/>
<path d="M0 0 C3.98932442 1.74777868 5.39633009 6.03028965 6.98828125 9.87109375 C8.50673355 15.3283193 8.29607036 19.94198943 6 25.13671875 C4.38347802 27.90789928 2.81011685 29.36173983 -0.01171875 30.87109375 C-3.19921875 30.55859375 -3.19921875 30.55859375 -6.01171875 29.87109375 C-6.67171875 30.20109375 -7.33171875 30.53109375 -8.01171875 30.87109375 C-12.71804627 26.79227657 -13.72821131 23.06827642 -14.51171875 16.99609375 C-14.352132 11.03438883 -10.36013939 7.30009745 -6.41796875 3.22265625 C-2.73824057 -0.17546008 -2.73824057 -0.17546008 0 0 Z " fill="#5B9E45" transform="translate(178.01171875,120.12890625)"/>
<path d="M0 0 C5.62163437 1.99880333 9.40989205 6.85542518 12.3125 11.9375 C14.18836744 16.13586999 14.37288013 19.65963228 12.8125 24 C10.67155473 27.58410098 7.93306346 30.84109153 3.8125 32 C0.33275262 31.91077571 -1.09508949 31.07091969 -3.875 28.9375 C-7.33916667 24.53707207 -8.3919319 20.50429072 -7.9375 14.9375 C-7.08624528 11.60341903 -6.16506509 8.29928216 -5.1875 5 C-5.0225 4.21625 -4.8575 3.4325 -4.6875 2.625 C-4.5225 2.08875 -4.3575 1.5525 -4.1875 1 C-2.1875 0 -2.1875 0 0 0 Z " fill="#579644" transform="translate(112.1875,116)"/>
<path d="M0 0 C5.02431311 2.83188557 8.74105558 5.64687121 11 11 C11.1953125 13.359375 11.1953125 13.359375 11.125 15.75 C11.10695313 16.54921875 11.08890625 17.3484375 11.0703125 18.171875 C11.04710938 18.77515625 11.02390625 19.3784375 11 20 C9.68 20 8.36 20 7 20 C6.67 19.67 6.34 19.34 6 19 C6.33 21.64 6.66 24.28 7 27 C6.01 27.66 5.02 28.32 4 29 C-2.87526457 25.61479348 -8.12218568 22.62583528 -11.12109375 15.23828125 C-12.07683918 11.71689031 -12.19929972 8.76568633 -12.125 5.125 C-12.10695312 3.97257812 -12.08890625 2.82015625 -12.0703125 1.6328125 C-12.04710937 0.76398438 -12.02390625 -0.10484375 -12 -1 C-8.26047219 -2.8697639 -3.86731997 -1.11682973 0 0 Z " fill="#579A43" transform="translate(49,89)"/>
<path d="M0 0 C2.41805568 4.23159744 3.84256462 7.13184888 3 12 C0.14999702 18.17010954 -2.85466596 22.92733298 -9 26 C-11.375 26.75 -11.375 26.75 -13 27 C-13.99 25.35 -14.98 23.7 -16 22 C-17.98 22.99 -17.98 22.99 -20 24 C-21.5414942 22.4585058 -21.20646315 21.01556186 -21.25 18.875 C-21.15670753 13.52340446 -20.14779382 9.29824314 -16.3828125 5.26953125 C-10.97138512 0.3806666 -7.30617882 -0.14050344 0 0 Z " fill="#578D41" transform="translate(181,68)"/>
<path d="M0 0 C7.60203346 1.65261597 14.34550727 5.09269844 19.625 10.875 C21.45229445 15.02794193 21.51798165 17.48615989 21 22 C19.77734375 23.7734375 19.77734375 23.7734375 18 25 C13.3412683 24.99210384 9.07127215 23.61541166 5.0625 21.3125 C-0.2263377 15.38259106 -1.24487456 8.59111126 -1 1 C-0.67 0.67 -0.34 0.34 0 0 Z " fill="#579643" transform="translate(80,116)"/>
<path d="M0 0 C0.40922648 6.68403251 -1.11769397 11.10931573 -4.75 16.6875 C-8.44707107 20.48726749 -11.99591146 22.85424811 -17.4375 23.25 C-18.283125 23.1675 -19.12875 23.085 -20 23 C-19.83718303 15.77684709 -18.65612028 10.63429681 -14 5 C-9.40415963 0.74044063 -6.25519524 -1.73755423 0 0 Z " fill="#599642" transform="translate(189,96)"/>
<path d="M0 0 C0.144375 0.928125 0.28875 1.85625 0.4375 2.8125 C0.92100111 6.00725111 0.92100111 6.00725111 2 9 C-0.10596882 13.88384199 -3.39432003 18.30399221 -8 21 C-11.125 21.125 -11.125 21.125 -14 21 C-14.99 21.66 -15.98 22.32 -17 23 C-19 21 -19 21 -19.08203125 18.7578125 C-18.99308594 17.88898438 -18.90414062 17.02015625 -18.8125 16.125 C-18.73644531 15.26132813 -18.66039062 14.39765625 -18.58203125 13.5078125 C-17.92956538 10.69651659 -16.86924363 9.16650878 -15 7 C-15 7.99 -15 8.98 -15 10 C-13.98679688 9.16855469 -13.98679688 9.16855469 -12.953125 8.3203125 C-12.06109375 7.59585938 -11.1690625 6.87140625 -10.25 6.125 C-9.36828125 5.40570313 -8.4865625 4.68640625 -7.578125 3.9453125 C-2.34939759 0 -2.34939759 0 0 0 Z " fill="#599C45" transform="translate(208,119)"/>
<path d="M0 0 C1.93490099 2.50820498 2.60627964 4.01990583 2.6875 7.1875 C0.72378913 10.1330663 -1.9666449 11.25377299 -5.3125 12.1875 C-8.86286906 12.04258698 -10.74702903 11.60014098 -13.625 9.5 C-15.72466766 6.62267765 -16.23843073 4.74282511 -16.3125 1.1875 C-14.92517134 -1.66423114 -13.96371131 -2.56609572 -11 -3.6875 C-6.55976432 -3.89402259 -3.48176834 -2.72895357 0 0 Z " fill="#508A3C" transform="translate(257.3125,153.8125)"/>
<path d="M0 0 C0.98837281 3.04114712 1.38617464 5.13471242 0.05859375 8.109375 C-2.05719587 11.57042787 -3.57413146 13.71608764 -7 16 C-10.08261485 16.32110571 -12.15738571 16.4348977 -14.9375 15 C-16.37965556 12.28535424 -16.21404429 9.98960008 -15.69140625 7.0078125 C-14.75490186 4.28824607 -13.21346982 2.52031092 -10.8984375 0.83203125 C-7.3693027 -0.71468832 -3.76481151 -0.37648115 0 0 Z " fill="#4D933A" transform="translate(222,41)"/>
<path d="M0 0 C2.625 2.25 2.625 2.25 4 5 C3.8125 7.125 3.8125 7.125 3 9 C2.67 9.99 2.34 10.98 2 12 C-2.01322046 14.67548031 -5.28373655 14.58740465 -10 14 C-12.5625 12.5 -12.5625 12.5 -14 11 C-13.72139186 7.3780942 -13.42061885 4.68350563 -11.5 1.5625 C-7.7589338 -0.77566638 -4.28736924 -0.91872198 0 0 Z " fill="#559241" transform="translate(45,151)"/>
<path d="M0 0 C3.37495058 0.02428022 5.14420406 0.59958588 7.75 2.75 C10.57191363 5.64074079 11.20620509 6.37582785 11.625 10.3125 C11.3125 13.375 11.3125 13.375 9.6875 15.3125 C6.38178538 16.79137233 4.74181948 16.49477779 1.3125 15.375 C-1.66843734 13.25522233 -3.36361132 11.68842446 -4.25390625 8.078125 C-4.53866723 5.81445542 -4.7534747 3.65583959 -4.6875 1.375 C-3.6875 0.375 -3.6875 0.375 0 0 Z " fill="#4D8938" transform="translate(72.6875,40.625)"/>
<path d="M0 0 C1.670625 0.2475 1.670625 0.2475 3.375 0.5 C5.73586122 4.04129184 5.94769578 5.32750218 5.375 9.5 C2.84532152 13.15398002 0.60894447 15.93187242 -3.625 17.5 C-5.625 16 -5.625 16 -7.625 13.5 C-8.21607389 8.84529312 -8.22275838 6.6476961 -6.0625 2.5 C-3.625 0.5 -3.625 0.5 0 0 Z " fill="#427132" transform="translate(167.625,44.5)"/>
<path d="M0 0 C6.625 -0.125 6.625 -0.125 10 1 C10.33 1.99 10.66 2.98 11 4 C9.7421875 6.375 9.7421875 6.375 7.875 9 C7.27429688 9.86625 6.67359375 10.7325 6.0546875 11.625 C1.91107282 16.41457742 -1.89115543 17.20811274 -8 18 C-8.99 18.66 -9.98 19.32 -11 20 C-9.93448551 17.51379951 -8.96162941 15.96282849 -7 14.0625 C-4.82536995 11.81991276 -3.97926774 9.93780321 -3 7 C-2.34 7 -1.68 7 -1 7 C-0.34 5.68 0.32 4.36 1 3 C1.66 3 2.32 3 3 3 C3 2.34 3 1.68 3 1 C1.68 1.33 0.36 1.66 -1 2 C-0.67 1.34 -0.34 0.68 0 0 Z " fill="#599044" transform="translate(223,81)"/>
<path d="M0 0 C3.1875 0.4375 3.1875 0.4375 6.0625 2.4375 C8.94476856 6.50658502 8.66975055 8.53461943 8.1875 13.4375 C7.8575 14.0975 7.5275 14.7575 7.1875 15.4375 C4.5 15.75 4.5 15.75 1.1875 15.4375 C-1.38535724 13.264865 -3.30246919 11.45756162 -4.8125 8.4375 C-5 5.4375 -5 5.4375 -4.8125 2.4375 C-2.8125 0.4375 -2.8125 0.4375 0 0 Z " fill="#53883F" transform="translate(69.8125,105.5625)"/>
<path d="M0 0 C0.66 0 1.32 0 2 0 C2.33 1.32 2.66 2.64 3 4 C2.01 4.495 2.01 4.495 1 5 C1.33 8.3 1.66 11.6 2 15 C3.65 15.33 5.3 15.66 7 16 C6.34 16.66 5.68 17.32 5 18 C0.51915111 17.51990905 -3.65230412 15.43958424 -6.71875 12.1640625 C-11 6.7317217 -11 6.7317217 -11 2 C-7.32589215 0.82428549 -3.83070817 0.92633254 0 1 C0 0.67 0 0.34 0 0 Z " fill="#4C8B39" transform="translate(68,80)"/>
<path d="M0 0 C2.3125 0.9375 2.3125 0.9375 4.3125 3.9375 C4.75 6.8125 4.75 6.8125 4.3125 9.9375 C2.06657292 12.74490885 0.41782787 14.54914156 -3 15.75 C-3.556875 15.811875 -4.11375 15.87375 -4.6875 15.9375 C-7.64671565 11.86857848 -8.41593876 8.94551645 -7.6875 3.9375 C-5.16302671 1.05238767 -3.88177252 -0.09027378 0 0 Z " fill="#498537" transform="translate(163.6875,19.0625)"/>
<path d="M0 0 C2.58562969 2.1155152 4.46223064 3.95807186 6 6.9375 C6 10.09788273 4.5333848 12.30124276 3 15 C0.875 15.4375 0.875 15.4375 -2 15 C-5.28632203 12.2755082 -7.69957519 9.4687435 -8.5625 5.25 C-7.37837929 0.51351715 -4.75621629 -0.90594596 0 0 Z " fill="#4D8D36" transform="translate(124,20)"/>
<path d="M0 0 C4.64474974 -0.32405231 7.29105728 0.11526677 11 3 C13.33287288 6.22158636 13.17683757 9.10957355 13 13 C11.35 13.66 9.7 14.32 8 15 C1.20805369 9.83221477 1.20805369 9.83221477 0 5 C-0.125 2.1875 -0.125 2.1875 0 0 Z " fill="#62944D" transform="translate(195,172)"/>
<path d="M0 0 C-1.875 4.75 -1.875 4.75 -3 7 C-3.66 7 -4.32 7 -5 7 C-5 7.66 -5 8.32 -5 9 C-8.21451269 10.60725635 -11.43612536 10.05748185 -15 10 C-15.66 8.68 -16.32 7.36 -17 6 C-14.11831461 1.36424524 -11.17995943 -0.02429465 -6.21875 -1.71484375 C-3.50550946 -2.06355248 -2.28830375 -1.41978846 0 0 Z " fill="#5A8F44" transform="translate(200,113)"/>
<path d="M0 0 C-1.31030432 1.00287529 -2.62330527 2.00222825 -3.9375 3 C-4.66839844 3.556875 -5.39929688 4.11375 -6.15234375 4.6875 C-8 6 -8 6 -9 6 C-9.16435547 6.84884766 -9.16435547 6.84884766 -9.33203125 7.71484375 C-9.56986328 8.81505859 -9.56986328 8.81505859 -9.8125 9.9375 C-9.96332031 10.66839844 -10.11414063 11.39929688 -10.26953125 12.15234375 C-10.51058594 12.76207031 -10.75164062 13.37179688 -11 14 C-11.99 14.33 -12.98 14.66 -14 15 C-13.67 13.02 -13.34 11.04 -13 9 C-13.99 9.33 -14.98 9.66 -16 10 C-16.33 8.02 -16.66 6.04 -17 4 C-21.49813009 6.66394112 -25.35339616 9.21314216 -29 13 C-29.66 13 -30.32 13 -31 13 C-30.71799583 9.61594998 -30.28694239 8.27874404 -27.8125 5.875 C-23.22641018 2.81760678 -19.6462544 0.50180108 -14 1 C-13.67 2.65 -13.34 4.3 -13 6 C-12.51789063 5.57847656 -12.03578125 5.15695313 -11.5390625 4.72265625 C-10.90742188 4.17480469 -10.27578125 3.62695312 -9.625 3.0625 C-8.68527344 2.24458984 -8.68527344 2.24458984 -7.7265625 1.41015625 C-4.76764382 -1.00651715 -3.58505602 -1.07551681 0 0 Z " fill="#74AD50" transform="translate(224,116)"/>
<path d="M0 0 C2.375 2 2.375 2 4 4 C2.75023244 7.65316671 2.32901247 8.78065836 -1 11 C-4.52295483 11.37478243 -6.34881863 11.41127245 -9.375 9.5 C-9.91125 9.005 -10.4475 8.51 -11 8 C-10.67842796 5.02545866 -10.37860258 3.40664722 -8.3125 1.1875 C-5.26453845 -0.37766945 -3.38514427 -0.49366687 0 0 Z " fill="#599D46" transform="translate(95,172)"/>
<path d="M0 0 C1.46985575 2.33447678 2.00714985 3.71400597 1.9375 6.5 C0.68656446 9.83582811 -1.06997426 11.04664951 -4 13 C-4.99 13.33 -5.98 13.66 -7 14 C-7.66 13.67 -8.32 13.34 -9 13 C-9.76118324 9.63810737 -10.30651407 7.03100189 -9.3125 3.6875 C-6.61669543 0.22146555 -4.31921032 0 0 0 Z " fill="#49833A" transform="translate(181,20)"/>
<path d="M0 0 C3.95751073 -0.310393 6.33055016 -0.38679324 9.8125 1.625 C12.28825508 4.31296266 13.12070257 6.48281029 14 10 C12.25390625 11.09765625 12.25390625 11.09765625 10 12 C5.79706257 10.95934946 2.62556771 8.77722049 -0.0625 5.4375 C-1 3 -1 3 0 0 Z " fill="#578F42" transform="translate(92,111)"/>
<path d="M0 0 C0.75 2.125 0.75 2.125 1 5 C-0.5625 8.25 -0.5625 8.25 -3 11 C-6.125 12 -6.125 12 -9 12 C-11 10 -11 10 -11.3125 7.125 C-11 4 -11 4 -10 1.625 C-6.82368122 -0.95575901 -4.00554268 -0.26265854 0 0 Z " fill="#4C813C" transform="translate(240,56)"/>
<path d="M0 0 C13.66035689 0.32901192 27.22184083 1.07872663 40.8125 2.5 C42.06313232 2.63059814 43.31376465 2.76119629 44.60229492 2.89575195 C54.19151499 3.93933721 54.19151499 3.93933721 58 5 C58 5.66 58 6.32 58 7 C44.70841903 5.99750703 31.42267574 4.91300185 18.14944458 3.69033813 C16.75851244 3.56347927 15.36729048 3.43975874 13.97579956 3.31918335 C12.01564608 3.14852256 10.05661076 2.96516305 8.09765625 2.78125 C6.96851807 2.67876953 5.83937988 2.57628906 4.67602539 2.47070312 C2 2 2 2 0 0 Z " fill="#0D0F0E" transform="translate(192,281)"/>
<path d="M0 0 C1.37478516 0.01740234 1.37478516 0.01740234 2.77734375 0.03515625 C3.69644531 0.04417969 4.61554688 0.05320312 5.5625 0.0625 C6.27277344 0.07410156 6.98304688 0.08570312 7.71484375 0.09765625 C8.34375 1.89453125 8.34375 1.89453125 8.71484375 4.09765625 C7.08031176 6.67328242 6.04434564 8.27662431 3.71484375 10.09765625 C0.52734375 10.59765625 0.52734375 10.59765625 -2.28515625 10.09765625 C-2.94515625 9.43765625 -3.60515625 8.77765625 -4.28515625 8.09765625 C-3.58828689 0.15334559 -3.58828689 0.15334559 0 0 Z " fill="#4F8739" transform="translate(254.28515625,111.90234375)"/>
<path d="M0 0 C4.07655174 -0.47401764 5.58343751 -0.31020611 8.9375 2.1875 C11 5 11 5 10.9375 7.6875 C10 10 10 10 8 12 C5.28712642 11.79131742 3.50851844 11.34506609 1.25 9.8125 C-0.49781729 7.27816493 -0.74161346 5.03604179 -1 2 C-0.67 1.34 -0.34 0.68 0 0 Z " fill="#4B8538" transform="translate(51,56)"/>
<path d="M0 0 C2.97 0 5.94 0 9 0 C9 0.66 9 1.32 9 2 C9.66 2 10.32 2 11 2 C11.125 4.875 11.125 4.875 11 8 C10.34 8.66 9.68 9.32 9 10 C5.45223843 9.8457495 3.46014658 9.33036165 0.5625 7.25 C-1 5 -1 5 -0.75 2.25 C-0.5025 1.5075 -0.255 0.765 0 0 Z " fill="#4D833A" transform="translate(29,112)"/>
<path d="M0 0 C0.75 1.6875 0.75 1.6875 1 4 C-0.5 6.75 -0.5 6.75 -3 9 C-6.75 9.3125 -6.75 9.3125 -10 9 C-11.1875 7.3125 -11.1875 7.3125 -12 5 C-8.99729823 -1.45580881 -6.65812056 -1.10968676 0 0 Z " fill="#416735" transform="translate(247,71)"/>
<path d="M0 0 C7.88416983 1.35258896 15.39353334 3.54399352 23 6 C23 6.99 23 7.98 23 9 C16.25 10.125 16.25 10.125 14 9 C14 8.34 14 7.68 14 7 C8.39 6.67 2.78 6.34 -3 6 C-3.33 5.34 -3.66 4.68 -4 4 C-0.7 4 2.6 4 6 4 C6 3.34 6 2.68 6 2 C3.03 1.505 3.03 1.505 0 1 C0 0.67 0 0.34 0 0 Z " fill="#202B2E" transform="translate(236,279)"/>
<path d="M0 0 C0.99 0.33 1.98 0.66 3 1 C4.21528969 7.32536319 4.32655692 12.31926434 1 18 C-1.375 20.5625 -1.375 20.5625 -4 22 C-6.8125 21.75 -6.8125 21.75 -9 21 C-8.67 19.68 -8.34 18.36 -8 17 C-7.34 17 -6.68 17 -6 17 C-5.67 15.68 -5.34 14.36 -5 13 C-4.67 14.32 -4.34 15.64 -4 17 C-2.39273805 15.94161451 -2.39273805 15.94161451 -1 14 C-0.41781668 10.5776116 -0.41781668 10.5776116 -0.3125 6.8125 C-0.24675781 5.54019531 -0.18101562 4.26789063 -0.11328125 2.95703125 C-0.05720703 1.49330078 -0.05720703 1.49330078 0 0 Z " fill="#557E43" transform="translate(182,129)"/>
<path d="M0 0 C1.875 3.0625 1.875 3.0625 3 6 C1.875 7.5625 1.875 7.5625 0 9 C-3.63626217 8.92263272 -5.51124151 8.3634358 -8.4375 6.1875 C-10 4 -10 4 -9.9375 1.8125 C-7.85925018 -2.20544965 -3.66602452 -1.14563266 0 0 Z " fill="#568C40" transform="translate(52,71)"/>
<path d="M0 0 C2.5625 0.375 2.5625 0.375 4.4375 2 C5.97138747 5.23820688 5.66215694 7.00271872 4.5625 10.375 C2.5 11.75 2.5 11.75 0.5625 12.375 C-2.1696625 10.08350887 -3.33778101 8.73113925 -4.3125 5.25 C-4.35375 4.30125 -4.395 3.3525 -4.4375 2.375 C-2.4375 0.375 -2.4375 0.375 0 0 Z " fill="#52913A" transform="translate(118.4375,42.625)"/>
<path d="M0 0 C2.33944736 0.28730055 4.6739143 0.61936779 7 1 C8.1875 3.75 8.1875 3.75 9 7 C7.625 9.375 7.625 9.375 6 11 C1.25 10.25 1.25 10.25 -1 8 C-1.1875 4.4375 -1.1875 4.4375 -1 1 C-0.67 0.67 -0.34 0.34 0 0 Z " fill="#448332" transform="translate(105,21)"/>
<path d="M0 0 C-0.33 1.65 -0.66 3.3 -1 5 C-1.66 5 -2.32 5 -3 5 C-3.33 3.68 -3.66 2.36 -4 1 C-6.97 1 -9.94 1 -13 1 C-13.33 2.32 -13.66 3.64 -14 5 C-15.62890625 6.921875 -15.62890625 6.921875 -17.5625 8.75 C-18.52349609 9.67039063 -18.52349609 9.67039063 -19.50390625 10.609375 C-20.24447266 11.29773438 -20.24447266 11.29773438 -21 12 C-21.99 11.67 -22.98 11.34 -24 11 C-17.48963529 1.06182962 -11.97533934 -3.85272188 0 0 Z " fill="#528A42" transform="translate(74,158)"/>
<path d="M0 0 C0.763125 0.0825 1.52625 0.165 2.3125 0.25 C2.92788462 7.51153846 2.92788462 7.51153846 -0.1875 11.25 C-1.0125 11.91 -1.8375 12.57 -2.6875 13.25 C-3.6775 12.92 -4.6675 12.59 -5.6875 12.25 C-6.04940476 5.01190476 -6.04940476 5.01190476 -4.5 1.75 C-2.6875 0.25 -2.6875 0.25 0 0 Z " fill="#507F3D" transform="translate(145.6875,70.75)"/>
<path d="M0 0 C1.66611905 -0.042721 3.33382885 -0.04063832 5 0 C6 1 6 1 6.09765625 2.84765625 C6.04882812 5.92382812 6.04882812 5.92382812 6 9 C5.01 8.67 4.02 8.34 3 8 C0.08772731 11.28804981 -1.49701212 13.59885603 -2 18 C-2.66 18 -3.32 18 -4 18 C-3.65226572 11.36906706 -3.03910346 5.946072 0 0 Z " fill="#242D2E" transform="translate(163,96)"/>
<path d="M0 0 C-2.83556208 1.89037472 -4.83191263 2.65374862 -8.0625 3.5625 C-11.61733007 4.55972045 -11.61733007 4.55972045 -15 6 C-15.65213292 8.02463255 -15.65213292 8.02463255 -16 10 C-17.45736087 10.19491452 -18.91594593 10.38069358 -20.375 10.5625 C-21.18710937 10.66691406 -21.99921875 10.77132813 -22.8359375 10.87890625 C-25 11 -25 11 -27 10 C-26 7 -26 7 -23.3125 5.5625 C-16.03540043 2.71822824 -7.88636479 -0.43151807 0 0 Z " fill="#272731" transform="translate(58,278)"/>
<path d="M0 0 C2.475 0.99 2.475 0.99 5 2 C5.33 5.3 5.66 8.6 6 12 C2 12 2 12 -0.3125 10.3125 C-2 8 -2 8 -1.8125 5.4375 C-1.20833333 3.625 -0.60416667 1.8125 0 0 Z " fill="#609E4B" transform="translate(236,168)"/>
<path d="M0 0 C0.66 0 1.32 0 2 0 C5 6.625 5 6.625 5 10 C5.99 10 6.98 10 8 10 C8.33 9.34 8.66 8.68 9 8 C8.8125 10.3125 8.8125 10.3125 8 13 C5.10451959 15.20970874 3.66842255 16 0 16 C0 10.72 0 5.44 0 0 Z " fill="#6B9C57" transform="translate(113,132)"/>
<path d="M0 0 C0.144375 0.639375 0.28875 1.27875 0.4375 1.9375 C0.81007181 3.97545146 0.81007181 3.97545146 2 5 C4.05396726 4.59070014 4.05396726 4.59070014 6 4 C6 4.99 6 5.98 6 7 C6.99 7 7.98 7 9 7 C8.67 7.99 8.34 8.98 8 10 C7.071875 9.95875 6.14375 9.9175 5.1875 9.875 C1.84190281 9.72863661 1.84190281 9.72863661 -1 12 C-3 10 -3 10 -3.046875 7.87109375 C-2.94890625 7.06800781 -2.8509375 6.26492187 -2.75 5.4375 C-2.66234375 4.63183594 -2.5746875 3.82617188 -2.484375 2.99609375 C-2.32453125 2.33738281 -2.1646875 1.67867187 -2 1 C-1.34 0.67 -0.68 0.34 0 0 Z " fill="#749D60" transform="translate(192,130)"/>
<path d="M0 0 C1.11375 0.1546875 1.11375 0.1546875 2.25 0.3125 C2.375 3.6875 2.375 3.6875 2.25 7.3125 C0.25 9.3125 0.25 9.3125 -2.375 9.4375 C-3.15875 9.39625 -3.9425 9.355 -4.75 9.3125 C-5.41 7.9925 -6.07 6.6725 -6.75 5.3125 C-3.42692308 0.38942308 -3.42692308 0.38942308 0 0 Z " fill="#5A9C43" transform="translate(168.75,47.6875)"/>
<path d="M0 0 C0.99 0 1.98 0 3 0 C4.64487387 3.28974775 4.16312117 6.94249445 4.16796875 10.55859375 C4.17129715 11.41751724 4.17462555 12.27644073 4.17805481 13.16139221 C4.18312641 14.98641423 4.18546306 16.81144555 4.18530273 18.63647461 C4.1874668 21.39518177 4.205557 24.15347422 4.22460938 26.91210938 C4.25210954 35.78680578 4.21754715 44.3371175 2 53 C1.67 53 1.34 53 1 53 C1.07001221 52.34112793 1.14002441 51.68225586 1.2121582 51.00341797 C2.02730886 42.48289534 2.18620021 34.02180828 2.18530273 25.47070312 C2.18751602 23.10789654 2.20582273 20.74553865 2.22460938 18.3828125 C2.22753971 16.86198074 2.22952691 15.3411468 2.23046875 13.8203125 C2.24124702 12.77485764 2.24124702 12.77485764 2.25224304 11.70828247 C2.23235976 7.43295344 1.56059689 3.97629418 0 0 Z " fill="#0D1515" transform="translate(132,190)"/>
<path d="M0 0 C0.33 0.99 0.66 1.98 1 3 C-0.51399763 5.8597733 -1.45254662 6.82641722 -4.5625 7.8125 C-7 8 -7 8 -9 7 C-9.25 4.6875 -9.25 4.6875 -9 2 C-6.04897468 -1.27891703 -4.09533092 -1.25135112 0 0 Z " fill="#517B42" transform="translate(210,108)"/>
<path d="M0 0 C0.33 2.31 0.66 4.62 1 7 C0.01 7.495 0.01 7.495 -1 8 C-1.33 6.02 -1.66 4.04 -2 2 C-6.49813009 4.66394112 -10.35339616 7.21314216 -14 11 C-14.66 11 -15.32 11 -16 11 C-15.71349017 7.56188206 -15.26566773 6.25828807 -12.75 3.8125 C-8.42396667 0.96125076 -5.20972969 -0.29769884 0 0 Z " fill="#698E56" transform="translate(209,118)"/>
<path d="M0 0 C0.66 0.33 1.32 0.66 2 1 C0.71417598 6.31248345 -1.15695829 10.37007185 -4.125 14.9375 C-4.49753906 15.52595703 -4.87007812 16.11441406 -5.25390625 16.72070312 C-6.16158306 18.15203964 -7.07970072 19.57674646 -8 21 C-8.66 20.67 -9.32 20.34 -10 20 C-9.37666027 17.04703576 -8.43098208 14.72453208 -6.93359375 12.109375 C-6.53076172 11.40039062 -6.12792969 10.69140625 -5.71289062 9.9609375 C-5.29201172 9.23132813 -4.87113281 8.50171875 -4.4375 7.75 C-4.01275391 7.00492188 -3.58800781 6.25984375 -3.15039062 5.4921875 C-2.10453958 3.65901039 -1.05283808 1.82917323 0 0 Z " fill="#1E2427" transform="translate(185,154)"/>
<path d="M0 0 C0.99 0 1.98 0 3 0 C3 5.94 3 11.88 3 18 C2.01 18.33 1.02 18.66 0 19 C0 12.73 0 6.46 0 0 Z " fill="#385D30" transform="translate(220,63)"/>
<path d="M0 0 C0.66 0 1.32 0 2 0 C1.43454163 3.95820859 0.19097652 6.6659053 -2 10 C-3.43861294 9.91253716 -4.87597508 9.80434652 -6.3125 9.6875 C-7.11300781 9.62949219 -7.91351563 9.57148437 -8.73828125 9.51171875 C-11.36272334 8.91793306 -12.30820672 8.04219706 -14 6 C-12.9275 5.855625 -11.855 5.71125 -10.75 5.5625 C-8.08337051 5.16250558 -5.58600271 4.72408076 -3 4 C-3 4.66 -3 5.32 -3 6 C-2.34 6 -1.68 6 -1 6 C-0.67 4.02 -0.34 2.04 0 0 Z " fill="#346624" transform="translate(111,53)"/>
<path d="M0 0 C0.66 0 1.32 0 2 0 C2.33 3.63 2.66 7.26 3 11 C1.35 11.66 -0.3 12.32 -2 13 C-3.32 11.68 -4.64 10.36 -6 9 C-5.195625 8.443125 -4.39125 7.88625 -3.5625 7.3125 C-0.75771784 4.78135513 -0.30618405 3.67420866 0 0 Z " fill="#48763B" transform="translate(122,87)"/>
<path d="M0 0 C3.06619724 1.46921951 4.23087518 4.02121906 5.875 6.8984375 C5.875 7.5584375 5.875 8.2184375 5.875 8.8984375 C4.885 8.8984375 3.895 8.8984375 2.875 8.8984375 C2.545 7.5784375 2.215 6.2584375 1.875 4.8984375 C1.215 4.8984375 0.555 4.8984375 -0.125 4.8984375 C-0.125 4.2384375 -0.125 3.5784375 -0.125 2.8984375 C-3.49091866 4.34097407 -5.63547079 6.23108477 -8.125 8.8984375 C-8.785 8.2384375 -9.445 7.5784375 -10.125 6.8984375 C-8.88946724 5.69589226 -7.63597661 4.51177518 -6.375 3.3359375 C-5.67890625 2.67464844 -4.9828125 2.01335937 -4.265625 1.33203125 C-2.125 -0.1015625 -2.125 -0.1015625 0 0 Z " fill="#6A8A5A" transform="translate(178.125,120.1015625)"/>
<path d="M0 0 C0.99 0 1.98 0 3 0 C4.98 4.29 6.96 8.58 9 13 C4.545 12.01 4.545 12.01 0 11 C0.66 10.67 1.32 10.34 2 10 C1.34 6.7 0.68 3.4 0 0 Z " fill="#699F4C" transform="translate(68,84)"/>
<path d="M0 0 C0.66 0 1.32 0 2 0 C5 4.38461538 5 4.38461538 5 7 C5.66 7 6.32 7 7 7 C8.61341433 8.97294956 10.01831805 11.05469651 11.46484375 13.15234375 C12.95699606 15.27877271 12.95699606 15.27877271 16 16 C16 16.66 16 17.32 16 18 C17.65 18.33 19.3 18.66 21 19 C21.33 19.99 21.66 20.98 22 22 C12.66300375 18.70458956 5.97005386 12.28395892 1.5625 3.5 C1.046875 2.345 0.53125 1.19 0 0 Z " fill="#101314" transform="translate(95,161)"/>
<path d="M0 0 C0.99 0 1.98 0 3 0 C3 1.32 3 2.64 3 4 C4.32 4.33 5.64 4.66 7 5 C7 5.99 7 6.98 7 8 C4.36 8 1.72 8 -1 8 C-1.66 6.68 -2.32 5.36 -3 4 C-1.6875 2 -1.6875 2 0 0 Z " fill="#72A355" transform="translate(186,115)"/>
<path d="M0 0 C0.33 0 0.66 0 1 0 C1.3572093 7.26325581 1.3572093 7.26325581 0 10.0625 C-3.36789837 11.64120236 -6.40064052 10.64906482 -10 10 C-8.25 7.9375 -8.25 7.9375 -6 6 C-3.75 6.25 -3.75 6.25 -2 7 C-1.855625 6.030625 -1.71125 5.06125 -1.5625 4.0625 C-1 1 -1 1 0 0 Z " fill="#3A5E24" transform="translate(100,130)"/>
<path d="M0 0 C3.5625 0.125 3.5625 0.125 5.5625 1.125 C5.2325 2.115 4.9025 3.105 4.5625 4.125 C2.9125 3.795 1.2625 3.465 -0.4375 3.125 C0.2225 4.775 0.8825 6.425 1.5625 8.125 C-0.3125 8 -0.3125 8 -2.4375 7.125 C-3.6875 4.0625 -3.6875 4.0625 -4.4375 1.125 C-3.4375 0.125 -3.4375 0.125 0 0 Z " fill="#7BA364" transform="translate(95.4375,110.875)"/>
<path d="M0 0 C1.98 0 3.96 0 6 0 C6 2 6 2 4.125 4.125 C2 6 2 6 0 6 C-0.12375 6.763125 -0.2475 7.52625 -0.375 8.3125 C-1 11 -1 11 -3 14 C-3.66 14 -4.32 14 -5 14 C-3.46527032 9.27775484 -1.76054874 4.64144669 0 0 Z " fill="#74A75C" transform="translate(220,82)"/>
<path d="M0 0 C1.32 0.66 2.64 1.32 4 2 C-0.59662479 4.50831048 -4.67863949 6.62874229 -10 7 C-10.99 6.67 -11.98 6.34 -13 6 C-12 4 -12 4 -9 3 C-7.44146733 2.78196693 -5.87817349 2.59633644 -4.3125 2.4375 C-3.50425781 2.35371094 -2.69601563 2.26992187 -1.86328125 2.18359375 C-0.94095703 2.09271484 -0.94095703 2.09271484 0 2 C0 1.34 0 0.68 0 0 Z " fill="#4A7C3A" transform="translate(207,100)"/>
<path d="M0 0 C0.66 0.33 1.32 0.66 2 1 C0.71580959 2.67243402 -0.57757185 4.33781447 -1.875 6 C-2.59429687 6.928125 -3.31359375 7.85625 -4.0546875 8.8125 C-4.69664062 9.534375 -5.33859375 10.25625 -6 11 C-6.66 11 -7.32 11 -8 11 C-8.33 11.99 -8.66 12.98 -9 14 C-9.66 13.67 -10.32 13.34 -11 13 C-10.67 11.68 -10.34 10.36 -10 9 C-8.68 9 -7.36 9 -6 9 C-5.87625 8.21625 -5.7525 7.4325 -5.625 6.625 C-5 4 -5 4 -3 2 C-2.01 2 -1.02 2 0 2 C0 1.34 0 0.68 0 0 Z " fill="#1B2120" transform="translate(193,170)"/>
<path d="M0 0 C0 0.33 0 0.66 0 1 C-1.0725 1.2475 -2.145 1.495 -3.25 1.75 C-7.04588722 3.01529574 -8.39623817 4.1069313 -11 7 C-11.66 7 -12.32 7 -13 7 C-13 7.99 -13 8.98 -13 10 C-12.34 10 -11.68 10 -11 10 C-11 10.66 -11 11.32 -11 12 C-11.99 11.67 -12.98 11.34 -14 11 C-13.72139186 7.3780942 -13.42061885 4.68350563 -11.5 1.5625 C-7.77615754 -0.76490154 -4.27841547 -0.32910888 0 0 Z " fill="#406E2F" transform="translate(45,151)"/>
<path d="M0 0 C0.99 0.33 1.98 0.66 3 1 C-1.16114261 5.02691221 -5.30948212 6.54722823 -11 7 C-14.0625 6.125 -14.0625 6.125 -16 5 C-16 4.67 -16 4.34 -16 4 C-14.64455078 3.90912109 -14.64455078 3.90912109 -13.26171875 3.81640625 C-12.08222656 3.73261719 -10.90273437 3.64882812 -9.6875 3.5625 C-7.92986328 3.44068359 -7.92986328 3.44068359 -6.13671875 3.31640625 C-2.97409042 3.1132629 -2.97409042 3.1132629 0 2 C0 1.34 0 0.68 0 0 Z " fill="#2D6320" transform="translate(247,145)"/>
<path d="M0 0 C0.66 1.32 1.32 2.64 2 4 C2.66 3.67 3.32 3.34 4 3 C4.66 3.33 5.32 3.66 6 4 C6.33 3.34 6.66 2.68 7 2 C6.63088042 4.67611698 6.15144437 5.8431469 4.25 7.8125 C1.3995411 9.31690887 0.01911587 8.92250763 -3 8 C-2.67 6.68 -2.34 5.36 -2 4 C-1.34 4 -0.68 4 0 4 C0 2.68 0 1.36 0 0 Z " fill="#447F38" transform="translate(176,142)"/>
<path d="M0 0 C0.66 0.99 1.32 1.98 2 3 C1.09292162 5.44911163 0.13785914 7.66815413 -1 10 C-1.67276716 11.6642135 -2.34206835 13.32986582 -3 15 C-3.66 15 -4.32 15 -5 15 C-5.78287497 8.89357521 -3.10825151 4.99540421 0 0 Z " fill="#212E2D" transform="translate(143,89)"/>
<path d="M0 0 C0.33 0 0.66 0 1 0 C1 2.97 1 5.94 1 9 C-0.32 9 -1.64 9 -3 9 C-3.33 8.67 -3.66 8.34 -4 8 C-4.33 8.66 -4.66 9.32 -5 10 C-5.66 9.34 -6.32 8.68 -7 8 C-7 7.01 -7 6.02 -7 5 C-6.21625 4.731875 -5.4325 4.46375 -4.625 4.1875 C-1.71885077 3.15185568 -1.71885077 3.15185568 0 0 Z " fill="#3F6836" transform="translate(59,100)"/>
<path d="M0 0 C-2.81681979 1.87787986 -4.79458015 2.65143573 -8 3.5625 C-10.68768048 4.33440823 -13.34646102 5.11548701 -16 6 C-16.99 5.34 -17.98 4.68 -19 4 C-16.77332235 3.32506659 -14.54354023 2.66036956 -12.3125 2 C-10.45044922 1.443125 -10.45044922 1.443125 -8.55078125 0.875 C-5.4989981 0.12296543 -3.11101638 -0.19034899 0 0 Z M-16 6 C-16 7.32 -16 8.64 -16 10 C-16.99 10 -17.98 10 -19 10 C-19.33 9.01 -19.66 8.02 -20 7 C-18 6 -18 6 -16 6 Z " fill="#151C1D" transform="translate(58,278)"/>
<path d="M0 0 C3.96 0 7.92 0 12 0 C12 0.66 12 1.32 12 2 C9.69 1.67 7.38 1.34 5 1 C5 1.66 5 2.32 5 3 C5.99 3.33 6.98 3.66 8 4 C8 4.66 8 5.32 8 6 C6.35 5.67 4.7 5.34 3 5 C3 4.34 3 3.68 3 3 C2.01 2.67 1.02 2.34 0 2 C0 1.34 0 0.68 0 0 Z " fill="#689C4C" transform="translate(50,134)"/>
<path d="M0 0 C1.65 0.33 3.3 0.66 5 1 C5.74926071 4.66305234 6.2380014 7.42355152 5 11 C4.01 11 3.02 11 2 11 C2.33 8.36 2.66 5.72 3 3 C1.68 3 0.36 3 -1 3 C-0.67 2.01 -0.34 1.02 0 0 Z " fill="#68865C" transform="translate(226,113)"/>
<path d="M0 0 C3.3 0 6.6 0 10 0 C11 4 11 4 10 6 C9.01 6 8.02 6 7 6 C7 4.68 7 3.36 7 2 C5.02 2 3.04 2 1 2 C0.67 2.66 0.34 3.32 0 4 C0 2.68 0 1.36 0 0 Z " fill="#4D7442" transform="translate(252,112)"/>
<path d="M0 0 C0.99 0.33 1.98 0.66 3 1 C-2.16778523 7.79194631 -2.16778523 7.79194631 -7 9 C-9.8125 9.125 -9.8125 9.125 -12 9 C-12.33 8.34 -12.66 7.68 -13 7 C-11.783125 6.95875 -10.56625 6.9175 -9.3125 6.875 C-5.78728525 6.46800363 -4.24719867 5.68983267 -2 2.9375 C-1.34 1.968125 -0.68 0.99875 0 0 Z " fill="#2D6422" transform="translate(194,57)"/>
<path d="M0 0 C-0.33 0.99 -0.66 1.98 -1 3 C-2.65 3 -4.3 3 -6 3 C-6.33 3.99 -6.66 4.98 -7 6 C-7.99 6 -8.98 6 -10 6 C-10 4.02 -10 2.04 -10 0 C-6.30458414 -0.95024979 -3.69541586 -0.95024979 0 0 Z " fill="#5A9249" transform="translate(254,151)"/>
<path d="M0 0 C0.66 1.32 1.32 2.64 2 4 C1.34 4.66 0.68 5.32 0 6 C0.99 7.485 0.99 7.485 2 9 C0.35 8.67 -1.3 8.34 -3 8 C-3.33 7.01 -3.66 6.02 -4 5 C-4.99 4.34 -5.98 3.68 -7 3 C-7 2.34 -7 1.68 -7 1 C-4.69 1.33 -2.38 1.66 0 2 C0 1.34 0 0.68 0 0 Z " fill="#4A7A34" transform="translate(62,134)"/>
<path d="M0 0 C3 1 3 1 4 2.75 C4 5 4 5 1.9375 7.75 C-1 10 -1 10 -4.0625 10.5625 C-7.5774153 9.88943111 -8.77613628 8.73706304 -11 6 C-8.03 6.495 -8.03 6.495 -5 7 C-5 7.66 -5 8.32 -5 9 C-3.35 8.67 -1.7 8.34 0 8 C0 7.34 0 6.68 0 6 C0.66 6 1.32 6 2 6 C2 4.68 2 3.36 2 2 C1.34 2 0.68 2 0 2 C0 1.34 0 0.68 0 0 Z " fill="#2F4524" transform="translate(95,173)"/>
<path d="M0 0 C0 1.65 0 3.3 0 5 C-2.3125 5.6875 -2.3125 5.6875 -5 6 C-6.8125 4.5625 -6.8125 4.5625 -8 3 C-7.34 3 -6.68 3 -6 3 C-6 2.34 -6 1.68 -6 1 C-4 0 -4 0 0 0 Z " fill="#273030" transform="translate(224,139)"/>
<path d="M0 0 C0.99 0.33 1.98 0.66 3 1 C3 4.3 3 7.6 3 11 C2.01 11.33 1.02 11.66 0 12 C0 8.04 0 4.08 0 0 Z " fill="#192223" transform="translate(150,111)"/>
<path d="M0 0 C0.66 0 1.32 0 2 0 C1.67 2.64 1.34 5.28 1 8 C1.99 8.33 2.98 8.66 4 9 C3.34 9 2.68 9 2 9 C2 9.66 2 10.32 2 11 C0.68 11 -0.64 11 -2 11 C-1.85957123 9.35369672 -1.71250671 7.70795821 -1.5625 6.0625 C-1.48128906 5.14597656 -1.40007812 4.22945313 -1.31640625 3.28515625 C-1 1 -1 1 0 0 Z " fill="#6E935B" transform="translate(171,108)"/>
<path d="M0 0 C1.32 0.33 2.64 0.66 4 1 C1.87562549 2.31352171 -0.24946592 3.62585713 -2.375 4.9375 C-2.97828125 5.31068359 -3.5815625 5.68386719 -4.203125 6.06835938 C-8.7734375 8.88671875 -8.7734375 8.88671875 -11 10 C-10.9375 7.6875 -10.9375 7.6875 -10 5 C-6.49851158 3.11957103 -3.9919694 2 0 2 C0 1.34 0 0.68 0 0 Z " fill="#121717" transform="translate(168,191)"/>
<path d="M0 0 C0.66 0.33 1.32 0.66 2 1 C2.4140625 3.28515625 2.4140625 3.28515625 2.625 6.0625 C2.69976562 6.98160156 2.77453125 7.90070313 2.8515625 8.84765625 C2.90054688 9.55792969 2.94953125 10.26820313 3 11 C1.68 11 0.36 11 -1 11 C-1.33 9.68 -1.66 8.36 -2 7 C-1.34 7 -0.68 7 0 7 C0 4.69 0 2.38 0 0 Z " fill="#506541" transform="translate(239,169)"/>
<path d="M0 0 C3.3 0.66 6.6 1.32 10 2 C9.67 3.65 9.34 5.3 9 7 C8.34 7 7.68 7 7 7 C6.67 5.68 6.34 4.36 6 3 C3.69 3 1.38 3 -1 3 C-0.67 2.01 -0.34 1.02 0 0 Z " fill="#4A743A" transform="translate(64,156)"/>
<path d="M0 0 C0.33 0 0.66 0 1 0 C1 2.64 1 5.28 1 8 C1.66 8 2.32 8 3 8 C2.34 9.65 1.68 11.3 1 13 C-0.32 12.34 -1.64 11.68 -3 11 C-2.67 9.68 -2.34 8.36 -2 7 C-1.67 7 -1.34 7 -1 7 C-0.67 4.69 -0.34 2.38 0 0 Z " fill="#688B58" transform="translate(98,87)"/>
<path d="M0 0 C0 0.99 0 1.98 0 3 C-4.25197382 6.52602707 -7.59788227 7.3884395 -13 8 C-13.99 8.66 -14.98 9.32 -16 10 C-15.4375 8.0625 -15.4375 8.0625 -14 6 C-10.375 5.25 -10.375 5.25 -7 5 C-7 4.34 -7 3.68 -7 3 C-5.5459375 2.5359375 -5.5459375 2.5359375 -4.0625 2.0625 C-1.15934208 1.30476658 -1.15934208 1.30476658 0 0 Z " fill="#24491F" transform="translate(228,91)"/>
<path d="M0 0 C1.65 0 3.3 0 5 0 C5 0.66 5 1.32 5 2 C4.01 2 3.02 2 2 2 C1.67 3.98 1.34 5.96 1 8 C-0.32 7.67 -1.64 7.34 -3 7 C-3 5.68 -3 4.36 -3 3 C-2.34 3 -1.68 3 -1 3 C-0.67 2.01 -0.34 1.02 0 0 Z " fill="#5B8347" transform="translate(228,139)"/>
<path d="M0 0 C0.66 0.99 1.32 1.98 2 3 C1.21625 2.95875 0.4325 2.9175 -0.375 2.875 C-3.16116119 2.71271266 -3.16116119 2.71271266 -5 5 C-5.99 4.67 -6.98 4.34 -8 4 C-7.625 2.0625 -7.625 2.0625 -7 0 C-4.27584084 -1.36207958 -2.87220643 -0.86166193 0 0 Z " fill="#466F35" transform="translate(115,117)"/>
<path d="M0 0 C0.33 1.32 0.66 2.64 1 4 C1.99 3.67 2.98 3.34 4 3 C3.67 4.32 3.34 5.64 3 7 C2.34 7 1.68 7 1 7 C1 7.66 1 8.32 1 9 C-0.32 8.34 -1.64 7.68 -3 7 C-1.125 2.25 -1.125 2.25 0 0 Z " fill="#669A52" transform="translate(232,100)"/>
<path d="M0 0 C0.66 0.33 1.32 0.66 2 1 C1.67 1.66 1.34 2.32 1 3 C1.66 3 2.32 3 3 3 C3 3.99 3 4.98 3 6 C3.99 5.67 4.98 5.34 6 5 C6 5.66 6 6.32 6 7 C3.36 7 0.72 7 -2 7 C-2.33 6.34 -2.66 5.68 -3 5 C-1.5625 2.375 -1.5625 2.375 0 0 Z " fill="#558F49" transform="translate(238,71)"/>
<path d="M0 0 C1.9375 0.3125 1.9375 0.3125 4 1 C4.33 1.99 4.66 2.98 5 4 C7.97 4.495 7.97 4.495 11 5 C11.33 3.68 11.66 2.36 12 1 C12 2.65 12 4.3 12 6 C10.35 6.66 8.7 7.32 7 8 C1.125 3.375 1.125 3.375 0 0 Z " fill="#2F4D1F" transform="translate(196,179)"/>
<path d="M0 0 C0.99 0.33 1.98 0.66 3 1 C2.46760392 5.52536666 0.72876727 8.38839627 -2 12 C-2.99 12.66 -3.98 13.32 -5 14 C-4.71125 13.484375 -4.4225 12.96875 -4.125 12.4375 C-2.7110462 9.37393343 -1.88680889 6.2516326 -1 3 C-0.67 2.01 -0.34 1.02 0 0 Z " fill="#315B2A" transform="translate(207,124)"/>
<path d="M0 0 C0.75 1.625 0.75 1.625 1 4 C-0.9375 7.25 -0.9375 7.25 -3 10 C-3.99 9.34 -4.98 8.68 -6 8 C-2.25 2.25 -2.25 2.25 0 0 Z " fill="#4D853C" transform="translate(177,99)"/>
<path d="M0 0 C-0.61538462 5.53846154 -0.61538462 5.53846154 -2.5625 7.875 C-3.2740625 8.431875 -3.2740625 8.431875 -4 9 C-4.66 7.02 -5.32 5.04 -6 3 C-2.25 0 -2.25 0 0 0 Z " fill="#6BA35C" transform="translate(205,83)"/>
<path d="M0 0 C0.99 0 1.98 0 3 0 C3.33 0.99 3.66 1.98 4 3 C2.875 4.5625 2.875 4.5625 1 6 C-2.1875 5.6875 -2.1875 5.6875 -5 5 C-5 4.34 -5 3.68 -5 3 C-3.35 3 -1.7 3 0 3 C0 2.01 0 1.02 0 0 Z " fill="#519F31" transform="translate(51,74)"/>
<path d="M0 0 C0.33 0 0.66 0 1 0 C1.0825 0.94875 1.165 1.8975 1.25 2.875 C1.65074923 6.10461791 1.65074923 6.10461791 4.0625 7.375 C4.701875 7.58125 5.34125 7.7875 6 8 C5.34 9.98 4.68 11.96 4 14 C0.08468337 8.89306527 -0.10265877 6.36484364 0 0 Z " fill="#436B32" transform="translate(177,50)"/>
<path d="M0 0 C2.31 0 4.62 0 7 0 C8.01911045 3.89114901 8.16782969 5.60596507 6.5625 9.375 C6.046875 10.24125 5.53125 11.1075 5 12 C4.34 10.68 3.68 9.36 3 8 C3.66 7.34 4.32 6.68 5 6 C5.64767793 3.42938689 5.64767793 3.42938689 6 1 C4.02 1 2.04 1 0 1 C0 0.67 0 0.34 0 0 Z " fill="#307A2A" transform="translate(215,41)"/>
<path d="M0 0 C0.33 2.31 0.66 4.62 1 7 C0.01 7.495 0.01 7.495 -1 8 C-1.33 6.02 -1.66 4.04 -2 2 C-2.598125 2.33 -3.19625 2.66 -3.8125 3 C-6 4 -6 4 -9 4 C-8.67 3.01 -8.34 2.02 -8 1 C-5.07175348 0.02391783 -3.04386724 -0.08226668 0 0 Z " fill="#7FA96B" transform="translate(209,118)"/>
<path d="M0 0 C0.99 0.33 1.98 0.66 3 1 C3.6875 3.0625 3.6875 3.0625 4 5 C2.125 6.0625 2.125 6.0625 0 7 C-0.66 6.67 -1.32 6.34 -2 6 C-2 5.34 -2 4.68 -2 4 C-2.66 3.67 -3.32 3.34 -4 3 C-2.68 3 -1.36 3 0 3 C0 2.01 0 1.02 0 0 Z " fill="#719350" transform="translate(102,116)"/>
<path d="M0 0 C1.65 0.33 3.3 0.66 5 1 C2 3 2 3 0 3 C-0.33 8.28 -0.66 13.56 -1 19 C-1.33 19 -1.66 19 -2 19 C-2.05411124 16.58303128 -2.09372278 14.16728213 -2.125 11.75 C-2.14175781 11.06808594 -2.15851563 10.38617188 -2.17578125 9.68359375 C-2.21213482 5.9391765 -2.07944349 3.17647273 0 0 Z " fill="#306122" transform="translate(92,30)"/>
<path d="M0 0 C1.2684375 0.495 1.2684375 0.495 2.5625 1 C1.5725 1.33 0.5825 1.66 -0.4375 2 C-1.0975 1.67 -1.7575 1.34 -2.4375 1 C-2.52 1.61875 -2.6025 2.2375 -2.6875 2.875 C-3.4375 5 -3.4375 5 -5.4375 6.125 C-6.0975 6.41375 -6.7575 6.7025 -7.4375 7 C-7.7675 7.66 -8.0975 8.32 -8.4375 9 C-9.0975 8.67 -9.7575 8.34 -10.4375 8 C-4.52065098 0 -4.52065098 0 0 0 Z " fill="#467A39" transform="translate(145.4375,22)"/>
<path d="M0 0 C3 1 3 1 4.1875 3.0625 C4.455625 3.701875 4.72375 4.34125 5 5 C4 6 4 6 0.9375 6.0625 C-0.5165625 6.0315625 -0.5165625 6.0315625 -2 6 C-2 5.01 -2 4.02 -2 3 C-1.34 3 -0.68 3 0 3 C0 2.01 0 1.02 0 0 Z " fill="#628151" transform="translate(90,100)"/>
<path d="M0 0 C0.99 0.33 1.98 0.66 3 1 C3 1.99 3 2.98 3 4 C3.66 4.33 4.32 4.66 5 5 C5 5.66 5 6.32 5 7 C5.99 7 6.98 7 8 7 C7.67 8.32 7.34 9.64 7 11 C6.34 11 5.68 11 5 11 C4.16151196 9.54462432 3.32936066 8.08559627 2.5 6.625 C1.80390625 5.40683594 1.80390625 5.40683594 1.09375 4.1640625 C0 2 0 2 0 0 Z " fill="#719C56" transform="translate(103,48)"/>
<path d="M0 0 C0.99 0 1.98 0 3 0 C4.59412284 3.18824568 4.10174735 6.62896662 4.0625 10.125 C4.05798828 10.87910156 4.05347656 11.63320312 4.04882812 12.41015625 C4.03703499 14.27347127 4.01909942 16.13674555 4 18 C3.67 18 3.34 18 3 18 C2.95101562 17.20335937 2.90203125 16.40671875 2.8515625 15.5859375 C2.29970605 7.61842686 2.29970605 7.61842686 0 0 Z " fill="#131B1C" transform="translate(132,190)"/>
<path d="M0 0 C0.66 0 1.32 0 2 0 C2 5.28 2 10.56 2 16 C1.01 15.67 0.02 15.34 -1 15 C-0.83628906 14.45859375 -0.67257813 13.9171875 -0.50390625 13.359375 C0.08590587 10.59777407 0.09609308 8.07181861 0.0625 5.25 C0.05347656 4.26515625 0.04445312 3.2803125 0.03515625 2.265625 C0.02355469 1.51796875 0.01195312 0.7703125 0 0 Z " fill="#535F62" transform="translate(138,114)"/>
<path d="M0 0 C1.32 0.33 2.64 0.66 4 1 C4 3.31 4 5.62 4 8 C3.01 8.33 2.02 8.66 1 9 C0.67 6.03 0.34 3.06 0 0 Z " fill="#56783F" transform="translate(185,95)"/>
<path d="M0 0 C0 0.99 0 1.98 0 3 C-3 5.1875 -3 5.1875 -6 7 C-6.66 5.68 -7.32 4.36 -8 3 C-5.36 2.01 -2.72 1.02 0 0 Z " fill="#4A6C3E" transform="translate(170,55)"/>
<path d="M0 0 C-3.12432397 2.52349243 -6.38060496 4.27256146 -10 6 C-10 4.35 -10 2.7 -10 1 C-6.78548731 -0.60725635 -3.56387464 -0.05748185 0 0 Z " fill="#18201F" transform="translate(211,156)"/>
<path d="M0 0 C0.66 1.32 1.32 2.64 2 4 C4.64 4 7.28 4 10 4 C10.33 4.66 10.66 5.32 11 6 C10.071875 5.95875 9.14375 5.9175 8.1875 5.875 C4.84190281 5.72863661 4.84190281 5.72863661 2 8 C0 6 0 6 -0.125 2.875 C-0.08375 1.92625 -0.0425 0.9775 0 0 Z " fill="#3C7532" transform="translate(189,134)"/>
<path d="M0 0 C2.64 0.33 5.28 0.66 8 1 C7.67 1.66 7.34 2.32 7 3 C5.68 3 4.36 3 3 3 C2.34 4.32 1.68 5.64 1 7 C0.34 6.34 -0.32 5.68 -1 5 C-0.625 2.375 -0.625 2.375 0 0 Z " fill="#5DA739" transform="translate(29,112)"/>
<path d="M0 0 C2 2 2 2 2.3125 4.8125 C1.96725236 8.33402591 1.07909887 10.17242554 -1 13 C-1.33 13 -1.66 13 -2 13 C-2 11.35 -2 9.7 -2 8 C-1.34 8 -0.68 8 0 8 C0 5.36 0 2.72 0 0 Z " fill="#275120" transform="translate(182,72)"/>
<path d="M0 0 C3 3 6 6 9 9 C6.1875 8.8125 6.1875 8.8125 3 8 C0.72136847 5.11373339 0 3.6952982 0 0 Z " fill="#182020" transform="translate(107,159)"/>
<path d="M0 0 C0.66 0.33 1.32 0.66 2 1 C1.1875 4.4375 1.1875 4.4375 0 8 C-0.99 8.33 -1.98 8.66 -3 9 C-2.5020163 5.26512223 -2.12508244 3.18762365 0 0 Z " fill="#252D2E" transform="translate(185,154)"/>
<path d="M0 0 C0.33 0 0.66 0 1 0 C1 4.29 1 8.58 1 13 C0.01 13 -0.98 13 -2 13 C-2.05416188 11.39620659 -2.09286638 9.79188594 -2.125 8.1875 C-2.14820313 7.29417969 -2.17140625 6.40085938 -2.1953125 5.48046875 C-2 3 -2 3 0 0 Z " fill="#62833F" transform="translate(166,130)"/>
<path d="M0 0 C0.33 0.99 0.66 1.98 1 3 C0.01 3 -0.98 3 -2 3 C-2.33 3.99 -2.66 4.98 -3 6 C-5.5625 7.1875 -5.5625 7.1875 -8 8 C-6.9802693 4.22699642 -6.34127338 3.19793856 -2.875 1.1875 C-1.92625 0.795625 -0.9775 0.40375 0 0 Z " fill="#67934E" transform="translate(184,95)"/>
<path d="M0 0 C0 0.66 0 1.32 0 2 C-3.96 3.98 -3.96 3.98 -8 6 C-6.65038535 0.6015414 -5.51062674 0 0 0 Z " fill="#528043" transform="translate(93,172)"/>
<path d="M0 0 C0.33 0.66 0.66 1.32 1 2 C3.02463255 2.65213292 3.02463255 2.65213292 5 3 C3 6 3 6 0.375 6.6875 C-0.800625 6.8421875 -0.800625 6.8421875 -2 7 C-1.34 6.67 -0.68 6.34 0 6 C-0.2784375 4.7934375 -0.2784375 4.7934375 -0.5625 3.5625 C-0.706875 2.716875 -0.85125 1.87125 -1 1 C-0.67 0.67 -0.34 0.34 0 0 Z " fill="#557646" transform="translate(217,157)"/>
<path d="M0 0 C0 0.66 0 1.32 0 2 C-2.97 2 -5.94 2 -9 2 C-9 1.34 -9 0.68 -9 0 C-5.93109813 -1.53445094 -3.29905734 -0.54984289 0 0 Z " fill="#75A65F" transform="translate(227,157)"/>
<path d="M0 0 C1.65 0 3.3 0 5 0 C5.33 0.99 5.66 1.98 6 3 C3 5 3 5 0.8125 4.625 C0.214375 4.41875 -0.38375 4.2125 -1 4 C-0.67 2.68 -0.34 1.36 0 0 Z " fill="#547E46" transform="translate(211,129)"/>
<path d="M0 0 C-1.32 0.33 -2.64 0.66 -4 1 C-4 1.66 -4 2.32 -4 3 C-10.625 6.125 -10.625 6.125 -14 5 C-12.61217515 4.1533966 -11.21430603 3.32324661 -9.8125 2.5 C-9.03519531 2.0359375 -8.25789062 1.571875 -7.45703125 1.09375 C-4.75896614 -0.10729647 -2.9193018 -0.20741043 0 0 Z " fill="#45713C" transform="translate(242,127)"/>
<path d="M0 0 C0.66 0 1.32 0 2 0 C2.33 3.63 2.66 7.26 3 11 C2.67 10.34 2.34 9.68 2 9 C1.34 9 0.68 9 0 9 C0 6.03 0 3.06 0 0 Z " fill="#26541E" transform="translate(122,87)"/>
<path d="M0 0 C0.99 0.33 1.98 0.66 3 1 C0.19195732 3.96404505 -2.18315774 6.44499019 -6 8 C-4.75237172 4.15314615 -3.6129609 1.97070595 0 0 Z " fill="#414F52" transform="translate(192,146)"/>
<path d="M0 0 C7.71428571 4 7.71428571 4 9 8 C8.01 8.495 8.01 8.495 7 9 C5 8 5 8 4 5 C3.34 4.67 2.68 4.34 2 4 C2 3.34 2 2.68 2 2 C1.34 2 0.68 2 0 2 C0 1.34 0 0.68 0 0 Z " fill="#181E1E" transform="translate(95,145)"/>
<path d="M0 0 C0.99 0.33 1.98 0.66 3 1 C4.1875 4.5625 4.1875 4.5625 5 8 C3.68 8.33 2.36 8.66 1 9 C0.67 6.03 0.34 3.06 0 0 Z " fill="#70A054" transform="translate(89,129)"/>
<path d="M0 0 C2.54288247 1.27144124 2.85625863 2.4011826 4.0625 4.9375 C4.40410156 5.64777344 4.74570313 6.35804688 5.09765625 7.08984375 C5.39542969 7.72019531 5.69320312 8.35054687 6 9 C6.33 9.66 6.66 10.32 7 11 C5.1875 10.875 5.1875 10.875 3 10 C0.71094011 6.32115375 0 4.38448044 0 0 Z " fill="#111314" transform="translate(70,130)"/>
<path d="M0 0 C-1.98 1.32 -3.96 2.64 -6 4 C-6 3.34 -6 2.68 -6 2 C-6.66 1.67 -7.32 1.34 -8 1 C-4.93251126 -0.86240388 -3.40254489 -1.2151946 0 0 Z M-9 4 C-8.01 4.33 -7.02 4.66 -6 5 C-6.99 5 -7.98 5 -9 5 C-9 4.67 -9 4.34 -9 4 Z " fill="#6C9D5A" transform="translate(224,116)"/>
<path d="M0 0 C1.98 0 3.96 0 6 0 C6.33 1.65 6.66 3.3 7 5 C6.01 5 5.02 5 4 5 C4 4.01 4 3.02 4 2 C2.35 2 0.7 2 -1 2 C-0.67 1.34 -0.34 0.68 0 0 Z " fill="#658352" transform="translate(234,56)"/>
<path d="M0 0 C0.99 0 1.98 0 3 0 C4.125 5.75 4.125 5.75 3 8 C2.01 7.67 1.02 7.34 0 7 C0 4.69 0 2.38 0 0 Z " fill="#537E43" transform="translate(120,45)"/>
<path d="M0 0 C2.4375 0.375 2.4375 0.375 5 1 C5.33 1.66 5.66 2.32 6 3 C5.01 3.99 4.02 4.98 3 6 C3 5.34 3 4.68 3 4 C2.34 4 1.68 4 1 4 C0.67 2.68 0.34 1.36 0 0 Z " fill="#4B783B" transform="translate(229,170)"/>
<path d="M0 0 C0.99 0.33 1.98 0.66 3 1 C2.67 2.32 2.34 3.64 2 5 C0.35 4.67 -1.3 4.34 -3 4 C-2.67 3.01 -2.34 2.02 -2 1 C-1.34 0.67 -0.68 0.34 0 0 Z " fill="#414545" transform="translate(202,140)"/>
<path d="M0 0 C0.99 0 1.98 0 3 0 C3 1.98 3 3.96 3 6 C2.34 6 1.68 6 1 6 C1 6.99 1 7.98 1 9 C0.34 9 -0.32 9 -1 9 C-1 7.68 -1 6.36 -1 5 C-0.01 5 0.98 5 2 5 C2 4.34 2 3.68 2 3 C1.34 3 0.68 3 0 3 C0 2.01 0 1.02 0 0 Z " fill="#8DB35F" transform="translate(173,140)"/>
<path d="M0 0 C0.33 0.66 0.66 1.32 1 2 C1.99 2.66 2.98 3.32 4 4 C0.01146724 5.23782051 -2.06796105 4.31067965 -6 3 C-2.25 0 -2.25 0 0 0 Z " fill="#3C6332" transform="translate(96,136)"/>
<path d="M0 0 C0.66 0 1.32 0 2 0 C2.125 5.75 2.125 5.75 1 8 C0.34 8 -0.32 8 -1 8 C-1.04241723 5.66705225 -1.04092937 3.33297433 -1 1 C-0.67 0.67 -0.34 0.34 0 0 Z " fill="#3C4244" transform="translate(165,115)"/>
<path d="M0 0 C1.89213369 2.38573379 3.02391783 4.07175348 4 7 C2.68 7 1.36 7 0 7 C-0.38133299 5.0085944 -0.71325582 3.00720923 -1 1 C-0.67 0.67 -0.34 0.34 0 0 Z " fill="#417A2D" transform="translate(97,75)"/>
<path d="M0 0 C0.99 0 1.98 0 3 0 C3.25 7.625 3.25 7.625 1 11 C0.34 11 -0.32 11 -1 11 C-0.67 9.35 -0.34 7.7 0 6 C0.33 6 0.66 6 1 6 C1.33 4.35 1.66 2.7 2 1 C1.34 0.67 0.68 0.34 0 0 Z " fill="#385832" transform="translate(145,71)"/>
<path d="M0 0 C0.66 0.33 1.32 0.66 2 1 C1.67 2.98 1.34 4.96 1 7 C0.01 7 -0.98 7 -2 7 C-2 5.02 -2 3.04 -2 1 C-1.34 0.67 -0.68 0.34 0 0 Z " fill="#77A855" transform="translate(231,59)"/>
<path d="M0 0 C0.66 0.99 1.32 1.98 2 3 C0.625 4.5 0.625 4.5 -1 6 C-1.66 6 -2.32 6 -3 6 C-3 6.66 -3 7.32 -3 8 C-3.66 7.67 -4.32 7.34 -5 7 C-3.47793991 4.37098712 -2.15634036 2.15634036 0 0 Z " fill="#507D40" transform="translate(211,42)"/>
<path d="M0 0 C0.33 1.32 0.66 2.64 1 4 C0.21625 3.814375 -0.5675 3.62875 -1.375 3.4375 C-3.97089775 2.74037734 -3.97089775 2.74037734 -6 4 C-6.66 3.34 -7.32 2.68 -8 2 C-4.91190305 0.23537317 -3.76687864 0 0 0 Z " fill="#3D6233" transform="translate(199,30)"/>
<path d="M0 0 C0.33 0.66 0.66 1.32 1 2 C1.99 2 2.98 2 4 2 C4 2.99 4 3.98 4 5 C1.69 5.33 -0.62 5.66 -3 6 C-2.34 5.67 -1.68 5.34 -1 5 C-0.34444881 2.47266765 -0.34444881 2.47266765 0 0 Z " fill="#4F743F" transform="translate(220,127)"/>
<path d="M0 0 C2.475 0.99 2.475 0.99 5 2 C3.68 2.33 2.36 2.66 1 3 C0.67 4.98 0.34 6.96 0 9 C-0.33 9 -0.66 9 -1 9 C-1.09765625 2.84765625 -1.09765625 2.84765625 -1 1 C-0.67 0.67 -0.34 0.34 0 0 Z " fill="#637C4B" transform="translate(80,116)"/>
<path d="M0 0 C0.6875 1.6875 0.6875 1.6875 1 4 C-0.3125 6.75 -0.3125 6.75 -2 9 C-2.66 9 -3.32 9 -4 9 C-2.94124926 5.59687262 -1.99097846 2.98646769 0 0 Z " fill="#92BC7C" transform="translate(219,87)"/>
<path d="M0 0 C0.66 0 1.32 0 2 0 C1.67 0.99 1.34 1.98 1 3 C0.67 2.01 0.34 1.02 0 0 Z M-4 2 C-2.68 2.66 -1.36 3.32 0 4 C-1.32 5.32 -2.64 6.64 -4 8 C-4.66 7.67 -5.32 7.34 -6 7 C-5.34 5.35 -4.68 3.7 -4 2 Z " fill="#639A4C" transform="translate(168,72)"/>
<path d="M0 0 C-0.1875 1.875 -0.1875 1.875 -1 4 C-3.5625 5.25 -3.5625 5.25 -6 6 C-5.6875 4.125 -5.6875 4.125 -5 2 C-2 0 -2 0 0 0 Z " fill="#7CA868" transform="translate(190,34)"/>
<path d="M0 0 C0.66 0 1.32 0 2 0 C1.34 2.31 0.68 4.62 0 7 C-0.99 6.67 -1.98 6.34 -3 6 C-2.42655063 3.13275314 -2.1385485 2.1385485 0 0 Z " fill="#79A562" transform="translate(219,125)"/>
<path d="M0 0 C0.66 0.33 1.32 0.66 2 1 C1.67 3.31 1.34 5.62 1 8 C0.34 8 -0.32 8 -1 8 C-1.33 5.69 -1.66 3.38 -2 1 C-1.34 0.67 -0.68 0.34 0 0 Z " fill="#1F2F2A" transform="translate(63,116)"/>
<path d="M0 0 C1.32 0.66 2.64 1.32 4 2 C3.67 3.32 3.34 4.64 3 6 C2.01 5.67 1.02 5.34 0 5 C0.33 4.34 0.66 3.68 1 3 C0.34 3 -0.32 3 -1 3 C-0.67 2.01 -0.34 1.02 0 0 Z " fill="#647A57" transform="translate(196,111)"/>
<path d="M0 0 C2.375 0.25 2.375 0.25 5 1 C6.3125 3.0625 6.3125 3.0625 7 5 C5.68 4.34 4.36 3.68 3 3 C2.34 3.66 1.68 4.32 1 5 C0.67 3.35 0.34 1.7 0 0 Z " fill="#243E19" transform="translate(86,86)"/>
<path d="M0 0 C0.66 0.33 1.32 0.66 2 1 C2 3.64 2 6.28 2 9 C1.01 9 0.02 9 -1 9 C-0.67 6.03 -0.34 3.06 0 0 Z " fill="#202C2B" transform="translate(153,83)"/>
<path d="M0 0 C0.598125 0.20625 1.19625 0.4125 1.8125 0.625 C1.8125 1.285 1.8125 1.945 1.8125 2.625 C2.4725 2.625 3.1325 2.625 3.8125 2.625 C3.4825 3.285 3.1525 3.945 2.8125 4.625 C0.1725 3.635 -2.4675 2.645 -5.1875 1.625 C-2.1875 -0.375 -2.1875 -0.375 0 0 Z " fill="#6F985B" transform="translate(79.1875,62.375)"/>
<path d="M0 0 C1.89213369 2.38573379 3.02391783 4.07175348 4 7 C3.01 7.33 2.02 7.66 1 8 C-0.42944945 5.64561267 -1.08661261 4.51967567 -0.625 1.75 C-0.41875 1.1725 -0.2125 0.595 0 0 Z " fill="#5B873F" transform="translate(153,29)"/>
<path d="M0 0 C0.98120464 3.05263664 0.98120464 4.94736336 0 8 C-0.66 8 -1.32 8 -2 8 C-2.33 6.02 -2.66 4.04 -3 2 C-2.01 2 -1.02 2 0 2 C0 1.34 0 0.68 0 0 Z " fill="#152123" transform="translate(140,163)"/>
<path d="M0 0 C2.97 0.495 2.97 0.495 6 1 C4.72403685 3.55192629 3.62843884 3.99500868 1 5 C0.01 4.67 -0.98 4.34 -2 4 C-1.34 4 -0.68 4 0 4 C0 2.68 0 1.36 0 0 Z " fill="#21401D" transform="translate(115,143)"/>
<path d="M0 0 C0.66 0.33 1.32 0.66 2 1 C2 2.65 2 4.3 2 6 C0.68 5.67 -0.64 5.34 -2 5 C-1.125 1.125 -1.125 1.125 0 0 Z " fill="#6D9F61" transform="translate(228,133)"/>
<path d="M0 0 C1.65 0 3.3 0 5 0 C5.33 1.65 5.66 3.3 6 5 C6.66 4.67 7.32 4.34 8 4 C8 4.99 8 5.98 8 7 C7.01 7.33 6.02 7.66 5 8 C4 7 4 7 3.9375 3.9375 C3.958125 2.968125 3.97875 1.99875 4 1 C2.68 0.67 1.36 0.34 0 0 Z " fill="#487032" transform="translate(205,117)"/>
<path d="M0 0 C0.66 0.99 1.32 1.98 2 3 C1.125 6.1875 1.125 6.1875 0 9 C-0.66 9 -1.32 9 -2 9 C-1.125 2.25 -1.125 2.25 0 0 Z " fill="#1C2528" transform="translate(161,105)"/>
<path d="M0 0 C1.32 0.66 2.64 1.32 4 2 C1.82575883 4.50037734 0.26954202 5.43628586 -3 6 C-2.67 4.68 -2.34 3.36 -2 2 C-1.34 2 -0.68 2 0 2 C0 1.34 0 0.68 0 0 Z " fill="#4B7A41" transform="translate(195,71)"/>
<path d="M0 0 C0 3 0 3 -1.375 4.6875 C-3 6 -3 6 -5 6 C-4.75 4.125 -4.75 4.125 -4 2 C-1.9375 0.75 -1.9375 0.75 0 0 Z " fill="#689256" transform="translate(116,64)"/>
<path d="M0 0 C2.64 0.33 5.28 0.66 8 1 C8 2.98 8 4.96 8 7 C7.67 7 7.34 7 7 7 C7 5.35 7 3.7 7 2 C4.36 2.33 1.72 2.66 -1 3 C-0.67 2.01 -0.34 1.02 0 0 Z " fill="#6FA762" transform="translate(213,41)"/>
<path d="M0 0 C0.66 0.33 1.32 0.66 2 1 C-0.3125 3.5 -0.3125 3.5 -3 6 C-3.99 6 -4.98 6 -6 6 C-6 5.34 -6 4.68 -6 4 C-5.01 4 -4.02 4 -3 4 C-2.67 3.01 -2.34 2.02 -2 1 C-1.34 0.67 -0.68 0.34 0 0 Z " fill="#5EA051" transform="translate(140,27)"/>
<path d="M0 0 C2.3125 -0.25 2.3125 -0.25 5 0 C6.8125 2 6.8125 2 8 4 C5.69 3.67 3.38 3.34 1 3 C0.67 2.01 0.34 1.02 0 0 Z " fill="#3F7033" transform="translate(119,20)"/>
<path d="M0 0 C0 3.51716303 -0.82445585 4.37121748 -3 7 C-4.32 6.67 -5.64 6.34 -7 6 C-4.69 4.02 -2.38 2.04 0 0 Z " fill="#171F1F" transform="translate(124,256)"/>
<path d="M0 0 C0.66 0.66 1.32 1.32 2 2 C1.60467975 4.45098556 0.78698574 6.63904279 0 9 C-0.66 8.67 -1.32 8.34 -2 8 C-1.34 5.36 -0.68 2.72 0 0 Z " fill="#2C5821" transform="translate(47,154)"/>
<path d="M0 0 C-0.33 0.99 -0.66 1.98 -1 3 C-4.0625 4.1875 -4.0625 4.1875 -7 5 C-7 4.01 -7 3.02 -7 2 C-2.25 0 -2.25 0 0 0 Z " fill="#384A51" transform="translate(213,145)"/>
<path d="M0 0 C1.875 0.1875 1.875 0.1875 4 1 C5.25 3.5625 5.25 3.5625 6 6 C5.01 6 4.02 6 3 6 C2.67 4.68 2.34 3.36 2 2 C1.34 2 0.68 2 0 2 C0 1.34 0 0.68 0 0 Z " fill="#67834F" transform="translate(178,123)"/>
<path d="M0 0 C0.33 0.99 0.66 1.98 1 3 C-0.25 5.1875 -0.25 5.1875 -2 7 C-2.99 7 -3.98 7 -5 7 C-5 6.01 -5 5.02 -5 4 C-4.01 3.67 -3.02 3.34 -2 3 C-1.34 2.01 -0.68 1.02 0 0 Z " fill="#70A154" transform="translate(214,94)"/>
<path d="M0 0 C1.98 0.495 1.98 0.495 4 1 C4 2.98 4 4.96 4 7 C3.67 5.68 3.34 4.36 3 3 C1.68 3.33 0.36 3.66 -1 4 C-0.67 2.68 -0.34 1.36 0 0 Z " fill="#679C4C" transform="translate(143,71)"/>
<path d="M0 0 C0.66 1.32 1.32 2.64 2 4 C0.35 4.33 -1.3 4.66 -3 5 C-3 3.68 -3 2.36 -3 1 C-2.01 0.67 -1.02 0.34 0 0 Z " fill="#73A34F" transform="translate(126,29)"/>
</svg>
